<?xml version="1.0" encoding="UTF-8"?>
<!-- Created by Svg.la -->
<svg version="1.1" xmlns="http://www.w3.org/2000/svg" width="600" height="450">
<path d="M0 0 C198 0 396 0 600 0 C600 148.5 600 297 600 450 C402 450 204 450 0 450 C0 301.5 0 153 0 0 Z " fill="#FDFDFD" transform="translate(0,0)"/>
<path d="M0 0 C2.97 0 5.94 0 9 0 C9.33 1.98 9.66 3.96 10 6 C15.94 6 21.88 6 28 6 C28 4.02 28 2.04 28 0 C30.64 0 33.28 0 36 0 C36.495 3.465 36.495 3.465 37 7 C43.6 7 50.2 7 57 7 C57 9.64 57 12.28 57 15 C56.34 15 55.68 15 55 15 C55.186 15.536 55.371 16.072 55.562 16.625 C56.113 19.615 55.549 22.03 55 25 C48.825 25.049 42.651 25.086 36.476 25.11 C34.376 25.12 32.276 25.134 30.176 25.151 C27.155 25.175 24.134 25.186 21.113 25.195 C19.708 25.211 19.708 25.211 18.275 25.227 C13.743 25.227 10.109 25.173 6 23 C6 25.97 6 28.94 6 32 C6.931 31.756 6.931 31.756 7.882 31.506 C12.23 30.8 16.497 30.878 20.895 30.902 C21.842 30.904 22.789 30.905 23.765 30.907 C26.781 30.912 29.797 30.925 32.812 30.938 C34.861 30.943 36.91 30.947 38.959 30.951 C43.973 30.962 48.986 30.979 54 31 C54 33.64 54 36.28 54 39 C53.01 39.495 53.01 39.495 52 40 C52.487 40.922 52.487 40.922 52.984 41.863 C54.427 46.32 54.29 50.534 54.25 55.188 C54.262 56.559 54.262 56.559 54.273 57.959 C54.271 58.832 54.268 59.706 54.266 60.605 C54.263 61.401 54.261 62.197 54.259 63.016 C54 65 54 65 52 67 C48.938 67.2 45.969 67.28 42.906 67.266 C42.004 67.268 41.101 67.269 40.172 67.271 C38.262 67.273 36.352 67.269 34.442 67.261 C31.512 67.25 28.582 67.261 25.652 67.273 C23.799 67.272 21.947 67.27 20.094 67.266 C18.773 67.272 18.773 67.272 17.426 67.278 C11.23 67.23 11.23 67.23 9 65 C7.68 65.99 6.36 66.98 5 68 C1.7 68 -1.6 68 -5 68 C-5 55.46 -5 42.92 -5 30 C-7.64 30 -10.28 30 -13 30 C-11.295 24.33 -8.725 19.327 -6.01 14.098 C-3.653 9.491 -1.739 4.875 0 0 Z " fill="#192640" transform="translate(407,187)"/>
<path d="M0 0 C0 0.99 0 1.98 0 3 C0.66 3 1.32 3 2 3 C2 3.99 2 4.98 2 6 C2.66 4.68 3.32 3.36 4 2 C6.31 2 8.62 2 11 2 C10.34 5.3 9.68 8.6 9 12 C9.99 12.66 10.98 13.32 12 14 C12.688 17.125 12.688 17.125 13 20 C13.266 19.131 13.531 18.262 13.805 17.367 C14.158 16.215 14.511 15.062 14.875 13.875 C15.397 12.17 15.397 12.17 15.93 10.43 C16.915 7.272 17.943 4.134 19 1 C21.31 1 23.62 1 26 1 C25.67 3.97 25.34 6.94 25 10 C30.94 10 36.88 10 43 10 C43 11.98 43 13.96 43 16 C41.68 16 40.36 16 39 16 C39.103 17.258 39.206 18.516 39.312 19.812 C39.349 26.202 37.601 32.039 35.866 38.134 C35.218 40.417 34.605 42.706 34 45 C33.671 46.198 33.343 47.395 33.004 48.629 C32.998 53.507 35.235 55.711 38.375 59.25 C39.407 60.461 40.436 61.674 41.461 62.891 C41.923 63.417 42.385 63.943 42.861 64.485 C44 66 44 66 45 69 C41.804 69.666 39.176 69.83 36 69 C33.489 66.617 31.605 64.123 29.629 61.285 C28.202 58.906 28.202 58.906 26 58 C25.773 58.701 25.546 59.403 25.312 60.125 C23.632 63.805 21.967 66.226 19 69 C16.145 69.514 13.929 69.298 11 69 C11.727 65.278 13.368 63.121 15.747 60.176 C20.371 54.622 20.371 54.622 22.215 47.859 C21.687 45.411 21.055 43.267 20 41 C15.521 41.447 15.521 41.447 12 44 C11.897 44.763 11.794 45.526 11.688 46.312 C10.754 49.961 8.697 51.431 6 54 C4.947 55.634 3.927 57.292 3 59 C6.465 60.98 6.465 60.98 10 63 C9.34 64.98 8.68 66.96 8 69 C4.756 67.996 2.101 67.066 -0.75 65.188 C-6.411 63.119 -11.48 65.936 -16.812 68.188 C-19.401 69.149 -21.263 69.37 -24 69 C-26 66 -26 66 -26 63 C-22.7 62.01 -19.4 61.02 -16 60 C-16.804 59.423 -17.609 58.845 -18.438 58.25 C-21 56 -21 56 -22 54.125 C-22 50.929 -20.552 48.731 -19 46 C-20.65 46 -22.3 46 -24 46 C-24.25 43.188 -24.25 43.188 -24 40 C-22.062 38.188 -22.062 38.188 -20 37 C-19.505 36.505 -19.505 36.505 -19 36 C-19.969 35.752 -20.939 35.505 -21.938 35.25 C-25 34 -25 34 -25.844 32.219 C-26.054 29.23 -25.096 27.794 -23.562 25.25 C-23.089 24.451 -22.616 23.652 -22.129 22.828 C-21.57 21.923 -21.57 21.923 -21 21 C-21.99 20.67 -22.98 20.34 -24 20 C-24 17.69 -24 15.38 -24 13 C-23.34 12.67 -22.68 12.34 -22 12 C-22.33 8.7 -22.66 5.4 -23 2 C-20.69 2 -18.38 2 -16 2 C-15.67 2.66 -15.34 3.32 -15 4 C-13.35 3.67 -11.7 3.34 -10 3 C-10 2.01 -10 1.02 -10 0 C-2.25 -1.125 -2.25 -1.125 0 0 Z " fill="#F1F1F3" transform="translate(341,186)"/>
<path d="M0 0 C2.97 0 5.94 0 9 0 C9 0.99 9 1.98 9 3 C9.676 3.009 10.352 3.019 11.048 3.028 C14.116 3.082 17.183 3.166 20.25 3.25 C21.313 3.264 22.377 3.278 23.473 3.293 C24.497 3.325 25.522 3.357 26.578 3.391 C27.521 3.412 28.463 3.433 29.435 3.454 C32.843 4.179 33.993 5.159 36 8 C36.533 11.236 36.533 11.236 36.566 15.031 C36.576 16.041 36.576 16.041 36.585 17.07 C36.592 18.489 36.589 19.908 36.576 21.327 C36.563 23.494 36.597 25.657 36.635 27.824 C36.636 29.206 36.634 30.587 36.629 31.969 C36.63 33.221 36.63 34.473 36.631 35.764 C36 39 36 39 34.139 41.408 C29.5 43.761 25.285 43.553 20.152 43.496 C18.579 43.498 18.579 43.498 16.974 43.501 C14.761 43.499 12.548 43.487 10.335 43.467 C6.946 43.438 3.559 43.446 0.17 43.459 C-1.982 43.453 -4.133 43.444 -6.285 43.434 C-7.806 43.438 -7.806 43.438 -9.357 43.442 C-10.301 43.43 -11.246 43.417 -12.219 43.404 C-13.048 43.399 -13.876 43.393 -14.73 43.388 C-17.565 42.903 -18.946 41.994 -21 40 C-21.394 37.389 -21.538 35.203 -21.496 32.594 C-21.498 31.873 -21.499 31.152 -21.501 30.409 C-21.499 28.885 -21.487 27.362 -21.467 25.839 C-21.438 23.508 -21.446 21.179 -21.459 18.848 C-21.453 17.367 -21.444 15.887 -21.434 14.406 C-21.437 13.709 -21.439 13.012 -21.442 12.294 C-21.387 9.469 -21.305 7.461 -19.724 5.069 C-17.677 3.8 -16.388 3.578 -13.988 3.488 C-13.231 3.453 -12.474 3.417 -11.693 3.381 C-10.908 3.358 -10.122 3.336 -9.312 3.312 C-8.117 3.261 -8.117 3.261 -6.896 3.209 C-4.931 3.127 -2.966 3.062 -1 3 C-0.67 2.01 -0.34 1.02 0 0 Z " fill="#24314B" transform="translate(502,187)"/>
<path d="M0 0 C2.97 0 5.94 0 9 0 C9.33 1.98 9.66 3.96 10 6 C15.94 6 21.88 6 28 6 C28 4.02 28 2.04 28 0 C30.64 0 33.28 0 36 0 C36.495 3.465 36.495 3.465 37 7 C43.6 7 50.2 7 57 7 C57 9.64 57 12.28 57 15 C56.34 15 55.68 15 55 15 C55.186 15.536 55.371 16.072 55.562 16.625 C56.113 19.615 55.549 22.03 55 25 C48.825 25.049 42.651 25.086 36.476 25.11 C34.376 25.12 32.276 25.134 30.176 25.151 C27.155 25.175 24.134 25.186 21.113 25.195 C19.708 25.211 19.708 25.211 18.275 25.227 C13.743 25.227 10.109 25.173 6 23 C6 22.34 6 21.68 6 21 C5.34 21 4.68 21 4 21 C4 36.51 4 52.02 4 68 C1.03 68 -1.94 68 -5 68 C-5 55.46 -5 42.92 -5 30 C-7.64 30 -10.28 30 -13 30 C-11.295 24.33 -8.725 19.327 -6.01 14.098 C-3.653 9.491 -1.739 4.875 0 0 Z " fill="#DDDFE3" transform="translate(407,187)"/>
<path d="M0 0 C0.116 10.996 0.205 21.992 0.259 32.989 C0.285 38.095 0.321 43.201 0.377 48.307 C0.432 53.235 0.461 58.162 0.474 63.09 C0.484 64.97 0.502 66.85 0.529 68.73 C0.565 71.363 0.57 73.996 0.568 76.63 C0.586 77.406 0.604 78.183 0.622 78.984 C0.584 82.992 0.192 84.764 -2.375 87.911 C-4.887 89.91 -7.362 91.678 -10.125 93.312 C-10.973 93.824 -11.821 94.336 -12.695 94.863 C-15 96 -15 96 -18 96 C-18.116 85.004 -18.205 74.008 -18.259 63.011 C-18.285 57.905 -18.321 52.799 -18.377 47.693 C-18.432 42.765 -18.461 37.838 -18.474 32.91 C-18.484 31.03 -18.502 29.15 -18.529 27.27 C-18.565 24.637 -18.57 22.004 -18.568 19.37 C-18.586 18.594 -18.604 17.817 -18.622 17.016 C-18.584 13.008 -18.192 11.236 -15.625 8.089 C-13.113 6.09 -10.638 4.322 -7.875 2.688 C-7.027 2.176 -6.179 1.664 -5.305 1.137 C-3 0 -3 0 0 0 Z " fill="#125AFC" transform="translate(172,163)"/>
<path d="M0 0 C0.116 10.214 0.205 20.428 0.259 30.642 C0.285 35.385 0.321 40.128 0.377 44.87 C0.432 49.448 0.461 54.025 0.474 58.603 C0.484 60.349 0.502 62.095 0.529 63.841 C0.565 66.288 0.57 68.733 0.568 71.18 C0.586 71.901 0.604 72.622 0.622 73.364 C0.582 77.249 0.131 78.842 -2.377 81.876 C-4.867 83.892 -7.314 85.668 -10.062 87.312 C-10.899 87.824 -11.736 88.336 -12.598 88.863 C-15 90 -15 90 -19 90 C-19.093 79.916 -19.164 69.833 -19.207 59.749 C-19.228 55.067 -19.256 50.385 -19.302 45.702 C-19.345 41.183 -19.369 36.664 -19.38 32.145 C-19.387 30.421 -19.401 28.697 -19.423 26.974 C-19.452 24.558 -19.456 22.144 -19.454 19.728 C-19.468 19.016 -19.483 18.305 -19.498 17.572 C-19.458 12.758 -18.382 10.391 -15 7 C-12.344 4.98 -12.344 4.98 -9.5 3.188 C-8.562 2.583 -7.623 1.978 -6.656 1.355 C-4 0 -4 0 0 0 Z " fill="#0F88FB" transform="translate(115,184)"/>
<path d="M0 0 C0.116 9.562 0.205 19.124 0.259 28.686 C0.285 33.127 0.321 37.566 0.377 42.007 C0.432 46.292 0.461 50.578 0.474 54.864 C0.484 56.498 0.502 58.133 0.529 59.767 C0.565 62.058 0.57 64.348 0.568 66.639 C0.579 67.943 0.59 69.246 0.601 70.589 C-0.34 75.929 -3.596 77.966 -7.789 81.055 C-8.725 81.655 -9.661 82.256 -10.625 82.875 C-11.566 83.491 -12.507 84.107 -13.477 84.742 C-16 86 -16 86 -19 85 C-19.116 75.568 -19.205 66.137 -19.259 56.705 C-19.285 52.325 -19.321 47.946 -19.377 43.566 C-19.432 39.339 -19.461 35.112 -19.474 30.884 C-19.484 29.272 -19.502 27.66 -19.529 26.048 C-19.565 23.788 -19.57 21.529 -19.568 19.269 C-19.579 17.983 -19.59 16.697 -19.601 15.373 C-18.656 10.072 -15.402 8.015 -11.211 4.98 C-10.275 4.389 -9.339 3.797 -8.375 3.188 C-7.434 2.583 -6.493 1.978 -5.523 1.355 C-3 0 -3 0 0 0 Z " fill="#0EB5FA" transform="translate(145,139)"/>
<path d="M0 0 C1.331 -0 1.331 -0 2.689 -0.001 C4.201 -0.015 4.201 -0.015 5.743 -0.029 C7.374 -0.012 7.374 -0.012 9.039 0.005 C10.157 0.004 11.275 0.002 12.427 0.001 C14.794 0.002 17.16 0.014 19.526 0.035 C23.15 0.064 26.772 0.055 30.396 0.042 C32.694 0.048 34.991 0.057 37.289 0.068 C38.917 0.063 38.917 0.063 40.578 0.059 C41.589 0.071 42.6 0.084 43.642 0.097 C44.53 0.103 45.418 0.108 46.333 0.114 C49.227 0.582 50.616 1.496 52.73 3.501 C53.232 5.906 53.232 5.906 53.226 8.72 C53.227 9.734 53.227 10.749 53.228 11.794 C53.208 12.852 53.188 13.911 53.167 15.001 C53.175 16.06 53.182 17.118 53.189 18.208 C53.125 25.942 53.125 25.942 51.454 28.309 C49.356 29.76 48.25 29.851 45.718 29.794 C44.961 29.785 44.204 29.775 43.423 29.765 C42.638 29.74 41.852 29.715 41.042 29.689 C39.847 29.668 39.847 29.668 38.626 29.648 C36.661 29.612 34.695 29.559 32.73 29.501 C32.4 27.851 32.07 26.201 31.73 24.501 C35.69 24.501 39.65 24.501 43.73 24.501 C43.73 23.511 43.73 22.521 43.73 21.501 C30.53 21.501 17.33 21.501 3.73 21.501 C3.73 24.141 3.73 26.781 3.73 29.501 C0.76 29.501 -2.21 29.501 -5.27 29.501 C-5.357 25.418 -5.41 21.335 -5.458 17.251 C-5.483 16.092 -5.508 14.933 -5.534 13.739 C-5.543 12.624 -5.553 11.509 -5.563 10.361 C-5.579 9.334 -5.594 8.308 -5.611 7.25 C-5.135 3.41 -3.97 0.877 0 0 Z " fill="#1B2843" transform="translate(243.27000427246094,225.49879455566406)"/>
<path d="M0 0 C1.134 0.021 2.269 0.041 3.438 0.062 C3.108 3.032 2.777 6.002 2.438 9.062 C8.377 9.062 14.317 9.062 20.438 9.062 C20.438 11.042 20.438 13.023 20.438 15.062 C19.118 15.062 17.798 15.062 16.438 15.062 C16.541 16.321 16.644 17.579 16.75 18.875 C16.787 25.265 15.038 31.101 13.304 37.197 C12.656 39.479 12.043 41.768 11.438 44.062 C11.109 45.26 10.78 46.458 10.441 47.691 C10.436 52.569 12.672 54.774 15.812 58.312 C16.844 59.523 17.873 60.737 18.898 61.953 C19.36 62.479 19.822 63.006 20.298 63.548 C21.438 65.062 21.438 65.062 22.438 68.062 C19.241 68.728 16.614 68.892 13.438 68.062 C10.927 65.679 9.042 63.186 7.066 60.348 C5.64 57.968 5.64 57.968 3.438 57.062 C3.211 57.764 2.984 58.465 2.75 59.188 C1.07 62.868 -0.595 65.289 -3.562 68.062 C-6.417 68.576 -8.634 68.36 -11.562 68.062 C-10.836 64.32 -9.174 62.185 -6.764 59.241 C-2.21 53.849 -2.21 53.849 -0.465 47.273 C-1.283 44.71 -2.338 42.457 -3.562 40.062 C-4.161 38.283 -4.724 36.49 -5.25 34.688 C-5.501 33.896 -5.753 33.105 -6.012 32.289 C-6.562 30.062 -6.562 30.062 -6.562 26.062 C-8.212 26.062 -9.863 26.062 -11.562 26.062 C-11.225 25.096 -10.887 24.129 -10.539 23.133 C-8.225 16.41 -6.083 9.858 -4.922 2.82 C-4.247 -0.479 -3.588 0.063 0 0 Z " fill="#1C2943" transform="translate(363.5625,186.9375)"/>
<path d="M0 0 C0.116 7.476 0.205 14.951 0.259 22.428 C0.285 25.9 0.32 29.371 0.377 32.843 C0.442 36.836 0.466 40.83 0.488 44.824 C0.514 46.067 0.54 47.31 0.566 48.59 C0.569 57.228 0.569 57.228 -2.356 61.195 C-3.229 61.791 -4.101 62.386 -5 63 C-5.92 63.678 -6.841 64.356 -7.789 65.055 C-8.725 65.655 -9.661 66.256 -10.625 66.875 C-11.566 67.491 -12.507 68.107 -13.477 68.742 C-16 70 -16 70 -19 69 C-19.139 61.394 -19.246 53.788 -19.311 46.181 C-19.342 42.649 -19.385 39.117 -19.453 35.585 C-19.53 31.521 -19.559 27.459 -19.586 23.395 C-19.617 22.13 -19.648 20.865 -19.68 19.562 C-19.683 10.999 -19.683 10.999 -17.718 8.126 C-16.13 6.778 -16.13 6.778 -13 5 C-11.679 4.091 -11.679 4.091 -10.332 3.164 C-9.501 2.656 -8.669 2.148 -7.812 1.625 C-6.973 1.102 -6.134 0.578 -5.27 0.039 C-3 -1 -3 -1 0 0 Z " fill="#1554FC" transform="translate(145,227)"/>
<path d="M0 0 C2.64 0 5.28 0 8 0 C8 0.99 8 1.98 8 3 C17.24 3 26.48 3 36 3 C36 4.65 36 6.3 36 8 C26.76 8 17.52 8 8 8 C8 9.32 8 10.64 8 12 C16.25 12 24.5 12 33 12 C33 13.32 33 14.64 33 16 C24.75 16 16.5 16 8 16 C8 17.32 8 18.64 8 20 C18.23 20 28.46 20 39 20 C39 21.65 39 23.3 39 25 C15.9 25 -7.2 25 -31 25 C-31 23.35 -31 21.7 -31 20 C-20.77 20 -10.54 20 0 20 C0 19.01 0 18.02 0 17 C-8.25 17 -16.5 17 -25 17 C-25 15.35 -25 13.7 -25 12 C-16.75 12 -8.5 12 0 12 C0 10.68 0 9.36 0 8 C-9.24 8 -18.48 8 -28 8 C-28 6.35 -28 4.7 -28 3 C-18.76 3 -9.52 3 0 3 C0 2.01 0 1.02 0 0 Z " fill="#27344C" transform="translate(263,198)"/>
<path d="M0 0 C0.178 6.583 0.3 13.166 0.385 19.751 C0.42 21.99 0.467 24.229 0.528 26.467 C0.613 29.689 0.653 32.909 0.684 36.133 C0.72 37.13 0.756 38.127 0.793 39.154 C0.797 45.982 0.797 45.982 -1.524 48.948 C-3.282 50.472 -5.036 51.758 -7 53 C-8.135 53.831 -8.135 53.831 -9.293 54.68 C-9.918 55.074 -10.543 55.469 -11.188 55.875 C-11.82 56.285 -12.453 56.695 -13.105 57.117 C-15 58 -15 58 -19 58 C-19.178 51.417 -19.3 44.834 -19.385 38.249 C-19.42 36.01 -19.467 33.771 -19.528 31.533 C-19.613 28.311 -19.653 25.091 -19.684 21.867 C-19.72 20.87 -19.756 19.873 -19.793 18.846 C-19.797 12.018 -19.797 12.018 -17.476 9.052 C-15.718 7.528 -13.964 6.242 -12 5 C-11.243 4.446 -10.487 3.891 -9.707 3.32 C-9.082 2.926 -8.457 2.531 -7.812 2.125 C-7.18 1.715 -6.547 1.305 -5.895 0.883 C-4 0 -4 0 0 0 Z " fill="#0CA6FA" transform="translate(82,201)"/>
<path d="M0 0 C0.101 6.62 0.171 13.24 0.22 19.861 C0.24 22.113 0.267 24.365 0.302 26.618 C0.35 29.855 0.373 33.091 0.391 36.328 C0.411 37.336 0.432 38.343 0.453 39.381 C0.455 46.375 0.455 46.375 -1.856 49.547 C-2.564 50.026 -3.271 50.506 -4 51 C-4.888 51.634 -5.776 52.268 -6.691 52.922 C-7.639 53.525 -8.586 54.128 -9.562 54.75 C-10.513 55.364 -11.463 55.977 -12.441 56.609 C-15 58 -15 58 -18 58 C-18.101 51.38 -18.171 44.76 -18.22 38.139 C-18.24 35.887 -18.267 33.635 -18.302 31.382 C-18.35 28.145 -18.373 24.909 -18.391 21.672 C-18.411 20.664 -18.432 19.657 -18.453 18.619 C-18.455 11.625 -18.455 11.625 -16.144 8.453 C-15.436 7.974 -14.729 7.494 -14 7 C-13.112 6.366 -12.224 5.732 -11.309 5.078 C-10.361 4.475 -9.414 3.872 -8.438 3.25 C-7.487 2.636 -6.537 2.023 -5.559 1.391 C-3 0 -3 0 0 0 Z " fill="#1056FC" transform="translate(199,184)"/>
<path d="M0 0 C4.083 -0.116 8.166 -0.187 12.25 -0.25 C13.409 -0.284 14.568 -0.317 15.762 -0.352 C16.877 -0.364 17.992 -0.377 19.141 -0.391 C20.167 -0.412 21.193 -0.433 22.251 -0.454 C25 0 25 0 27.342 1.576 C29.615 4.899 29.456 7.167 29.391 11.172 C29.385 11.854 29.379 12.537 29.373 13.24 C29.351 15.411 29.301 17.58 29.25 19.75 C29.23 21.225 29.212 22.7 29.195 24.176 C29.151 27.784 29.082 31.392 29 35 C28.34 35 27.68 35 27 35 C27 26.09 27 17.18 27 8 C24.036 8.729 24.036 8.729 22.562 10.5 C20.748 12.242 19.444 12.579 17 13 C17.99 13.66 18.98 14.32 20 15 C21 16 21 16 21 22 C7.14 22 -6.72 22 -21 22 C-21.66 19.69 -22.32 17.38 -23 15 C-23.99 15 -24.98 15 -26 15 C-26.33 16.32 -26.66 17.64 -27 19 C-27 16.69 -27 14.38 -27 12 C-25.02 11.67 -23.04 11.34 -21 11 C-20.67 9.35 -20.34 7.7 -20 6 C-9.44 5.67 1.12 5.34 12 5 C7.71 4.67 3.42 4.34 -1 4 C-0.67 2.68 -0.34 1.36 0 0 Z " fill="#364259" transform="translate(509,191)"/>
<path d="M0 0 C0.66 0.99 1.32 1.98 2 3 C2.33 2.34 2.66 1.68 3 1 C5.64 1 8.28 1 11 1 C11.671 2.456 12.337 3.915 13 5.375 C13.371 6.187 13.742 6.999 14.125 7.836 C15 10 15 10 15 12 C13.721 12.062 12.442 12.124 11.125 12.188 C10.046 12.24 10.046 12.24 8.945 12.293 C8.303 12.196 7.661 12.1 7 12 C6.34 11.01 5.68 10.02 5 9 C3.039 8.176 3.039 8.176 1 8 C0.01 8.495 0.01 8.495 -1 9 C-1.33 11.31 -1.66 13.62 -2 16 C4.93 16 11.86 16 19 16 C19 14.68 19 13.36 19 12 C20.98 12 22.96 12 25 12 C25.367 19.465 25.367 19.465 23.901 21.601 C21.076 23.68 18.761 23.406 15.285 23.434 C14.633 23.439 13.981 23.444 13.309 23.449 C11.931 23.456 10.554 23.455 9.176 23.446 C7.073 23.438 4.972 23.466 2.869 23.498 C1.529 23.5 0.188 23.499 -1.152 23.496 C-2.978 23.499 -2.978 23.499 -4.84 23.502 C-8 23 -8 23 -10.404 21.212 C-12.787 17.909 -12.429 14.651 -12.25 10.75 C-12.232 10.005 -12.214 9.26 -12.195 8.492 C-12.148 6.661 -12.077 4.83 -12 3 C-12.66 3 -13.32 3 -14 3 C-14.33 4.98 -14.66 6.96 -15 9 C-15.66 9 -16.32 9 -17 9 C-17.205 9.626 -17.41 10.253 -17.621 10.898 C-17.891 11.716 -18.16 12.533 -18.438 13.375 C-18.704 14.187 -18.971 14.999 -19.246 15.836 C-20 18 -20 18 -21 20 C-23.64 20 -26.28 20 -29 20 C-28.31 16.153 -27.284 12.524 -26.062 8.812 C-25.723 7.767 -25.384 6.722 -25.035 5.645 C-24 3 -24 3 -22 1 C-14.896 -0.366 -7.184 -0.792 0 0 Z " fill="#ECECEF" transform="translate(504,232)"/>
<path d="M0 0 C0 0.99 0 1.98 0 3 C0.66 3 1.32 3 2 3 C2 3.99 2 4.98 2 6 C2.66 4.68 3.32 3.36 4 2 C6.31 2 8.62 2 11 2 C10.34 5.3 9.68 8.6 9 12 C9.66 12.33 10.32 12.66 11 13 C11 15.31 11 17.62 11 20 C6.71 20 2.42 20 -2 20 C-2 24.62 -2 29.24 -2 34 C-4.64 34 -7.28 34 -10 34 C-10 29.38 -10 24.76 -10 20 C-14.62 20 -19.24 20 -24 20 C-24 17.69 -24 15.38 -24 13 C-23.34 12.67 -22.68 12.34 -22 12 C-22.33 8.7 -22.66 5.4 -23 2 C-20.69 2 -18.38 2 -16 2 C-15.67 2.66 -15.34 3.32 -15 4 C-13.35 3.67 -11.7 3.34 -10 3 C-10 2.01 -10 1.02 -10 0 C-2.25 -1.125 -2.25 -1.125 0 0 Z " fill="#24304A" transform="translate(341,186)"/>
<path d="M0 0 C0.025 3.965 0.043 7.93 0.055 11.896 C0.062 13.897 0.075 15.899 0.088 17.9 C0.124 32.265 0.124 32.265 -1 38 C-3.486 39.935 -6.041 40.963 -9 42 C-12.386 43.232 -12.386 43.232 -15 45 C-15.975 48.09 -15.975 48.09 -16 51 C-16.66 51 -17.32 51 -18 51 C-18.124 45.395 -18.214 39.791 -18.275 34.185 C-18.3 32.279 -18.334 30.373 -18.377 28.467 C-18.438 25.724 -18.466 22.982 -18.488 20.238 C-18.514 19.389 -18.54 18.54 -18.566 17.665 C-18.569 13.286 -18.454 11.568 -15.63 8.035 C-13.108 6.083 -10.62 4.312 -7.875 2.688 C-7.027 2.176 -6.179 1.664 -5.305 1.137 C-3 0 -3 0 0 0 Z " fill="#0E9AFA" transform="translate(172,163)"/>
<path d="M0 0 C0.33 0 0.66 0 1 0 C1 3.63 1 7.26 1 11 C2.65 10.67 4.3 10.34 6 10 C7.503 9.919 9.009 9.882 10.515 9.886 C11.375 9.887 12.236 9.887 13.123 9.887 C14.037 9.892 14.952 9.897 15.895 9.902 C16.842 9.904 17.789 9.905 18.765 9.907 C21.781 9.912 24.797 9.925 27.812 9.938 C29.861 9.943 31.91 9.947 33.959 9.951 C38.973 9.962 43.986 9.979 49 10 C49 12.64 49 15.28 49 18 C48.01 18.495 48.01 18.495 47 19 C46.505 20.485 46.505 20.485 46 22 C44.92 21.99 43.84 21.979 42.727 21.968 C38.728 21.932 34.728 21.909 30.729 21.89 C28.997 21.88 27.264 21.866 25.532 21.849 C23.045 21.825 20.558 21.814 18.07 21.805 C16.905 21.789 16.905 21.789 15.715 21.773 C13.809 21.773 11.903 21.878 10 22 C7.794 23.787 7.794 23.787 7.773 26.155 C7.783 27.024 7.794 27.893 7.805 28.789 C7.811 29.73 7.818 30.671 7.824 31.641 C7.849 33.118 7.849 33.118 7.875 34.625 C7.889 36.114 7.889 36.114 7.902 37.633 C7.926 40.089 7.959 42.544 8 45 C7.01 45.495 7.01 45.495 6 46 C5.34 45.34 4.68 44.68 4 44 C2.68 44.99 1.36 45.98 0 47 C0 31.49 0 15.98 0 0 Z " fill="#FAFAFA" transform="translate(412,208)"/>
<path d="M0 0 C2.64 0 5.28 0 8 0 C6.628 7.483 4.078 14.056 1 21 C1.66 21 2.32 21 3 21 C3 36.51 3 52.02 3 68 C0.36 68 -2.28 68 -5 68 C-5 55.46 -5 42.92 -5 30 C-7.64 30 -10.28 30 -13 30 C-11.295 24.33 -8.725 19.327 -6.01 14.098 C-3.653 9.491 -1.739 4.875 0 0 Z " fill="#15233E" transform="translate(407,187)"/>
<path d="M0 0 C0.66 0 1.32 0 2 0 C2.248 4.998 2.429 9.993 2.549 14.996 C2.599 16.695 2.668 18.394 2.754 20.091 C3.457 34.185 3.457 34.185 -0.095 38.609 C-2.668 40.423 -5.127 41.727 -8 43 C-9.339 43.821 -9.339 43.821 -10.705 44.658 C-13 46 -13 46 -15 46 C-15.05 41.801 -15.086 37.602 -15.11 33.402 C-15.12 31.975 -15.134 30.547 -15.151 29.119 C-15.175 27.064 -15.187 25.009 -15.195 22.953 C-15.206 21.717 -15.216 20.481 -15.227 19.208 C-15.009 16.126 -14.763 14.497 -13 12 C-9.926 10.065 -7.075 8.407 -3.688 7.125 C-1.05 5.366 -0.772 2.96 0 0 Z " fill="#0C9BFA" transform="translate(142,179)"/>
<path d="M0 0 C0.33 0 0.66 0 1 0 C1.145 4.562 1.234 9.124 1.312 13.688 C1.354 14.981 1.396 16.275 1.439 17.607 C1.456 18.855 1.472 20.102 1.488 21.387 C1.514 22.534 1.541 23.68 1.568 24.862 C0.663 29.864 -2.564 31.994 -6.57 34.801 C-7.413 35.3 -8.256 35.799 -9.125 36.312 C-9.973 36.824 -10.821 37.336 -11.695 37.863 C-14 39 -14 39 -17 39 C-17.058 34.417 -17.094 29.834 -17.125 25.25 C-17.142 23.948 -17.159 22.646 -17.176 21.305 C-17.182 20.054 -17.189 18.804 -17.195 17.516 C-17.206 16.364 -17.216 15.211 -17.227 14.024 C-17.006 11.075 -16.637 9.433 -15 7 C-12.977 5.988 -12.977 5.988 -10.625 5.312 C-9.854 5.082 -9.083 4.851 -8.289 4.613 C-6 4 -6 4 -3.836 3.605 C-1.608 3.08 -1.608 3.08 0 0 Z " fill="#126DFB" transform="translate(114,235)"/>
<path d="M0 0 C2.64 0 5.28 0 8 0 C7.67 1.32 7.34 2.64 7 4 C7.976 3.977 8.952 3.954 9.957 3.93 C11.229 3.912 12.502 3.894 13.812 3.875 C15.077 3.852 16.342 3.829 17.645 3.805 C21 4 21 4 24 6 C24.532 9.651 24.26 11.53 22.469 14.773 C21.819 15.632 21.169 16.49 20.5 17.375 C19.85 18.249 19.201 19.123 18.531 20.023 C18.026 20.676 17.521 21.328 17 22 C18.507 25.013 21.032 25.611 24 27 C23.34 28.98 22.68 30.96 22 33 C18.756 31.996 16.101 31.066 13.25 29.188 C7.589 27.119 2.52 29.936 -2.812 32.188 C-5.401 33.149 -7.263 33.37 -10 33 C-12 30 -12 30 -12 27 C-2.59 25.483 -2.59 25.483 2 28 C1.814 27.216 1.629 26.433 1.438 25.625 C1 23 1 23 2 21 C1.051 20.691 0.103 20.381 -0.875 20.062 C-4 19 -4 19 -6 18 C-5.625 15.562 -5.625 15.562 -5 13 C-4.34 12.67 -3.68 12.34 -3 12 C-3 12.66 -3 13.32 -3 14 C-2.01 14 -1.02 14 0 14 C0 14.99 0 15.98 0 17 C3.412 17.863 6.487 18.413 10 18 C12.808 15.592 14.099 13.252 16 10 C12.04 9.67 8.08 9.34 4 9 C4 8.34 4 7.68 4 7 C3.361 6.732 2.721 6.464 2.062 6.188 C0 5 0 5 -1 2 C-0.67 1.34 -0.34 0.68 0 0 Z " fill="#1F2B45" transform="translate(327,222)"/>
<path d="M0 0 C2.12 3.534 2.532 6.944 3 11 C3.66 11 4.32 11 5 11 C5.33 9.68 5.66 8.36 6 7 C7.32 6.67 8.64 6.34 10 6 C12.617 9.925 11.835 11.445 11 16 C10.71 17.083 10.42 18.166 10.121 19.281 C9.952 24.464 12.049 26.502 15.375 30.25 C16.407 31.461 17.436 32.674 18.461 33.891 C18.923 34.417 19.385 34.943 19.861 35.485 C21 37 21 37 22 40 C18.804 40.666 16.176 40.83 13 40 C10.489 37.617 8.605 35.123 6.629 32.285 C5.202 29.906 5.202 29.906 3 29 C2.773 29.701 2.546 30.403 2.312 31.125 C0.632 34.805 -1.033 37.226 -4 40 C-6.855 40.514 -9.071 40.298 -12 40 C-11.274 36.258 -9.61 34.123 -7.202 31.177 C-2.567 25.708 -2.567 25.708 -0.973 19 C-1.776 16.489 -2.768 14.324 -4 12 C-5.034 8.916 -5.074 8.223 -4 5 C-3.01 4.67 -2.02 4.34 -1 4 C-0.267 1.985 -0.267 1.985 0 0 Z " fill="#202D47" transform="translate(364,215)"/>
<path d="M0 0 C2.64 0 5.28 0 8 0 C8 0.99 8 1.98 8 3 C15.92 3 23.84 3 32 3 C32 2.01 32 1.02 32 0 C34.97 0 37.94 0 41 0 C41 0.99 41 1.98 41 3 C45.62 3 50.24 3 55 3 C55 4.65 55 6.3 55 8 C50.38 8 45.76 8 41 8 C41 9.32 41 10.64 41 12 C38.03 12 35.06 12 32 12 C32 11.01 32 10.02 32 9 C24.08 9 16.16 9 8 9 C8 9.99 8 10.98 8 12 C5.36 12 2.72 12 0 12 C0 11.01 0 10.02 0 9 C-4.95 9 -9.9 9 -15 9 C-15 7.02 -15 5.04 -15 3 C-10.05 3 -5.1 3 0 3 C0 2.01 0 1.02 0 0 Z " fill="#27334C" transform="translate(247,187)"/>
<path d="M0 0 C0.495 1.98 0.495 1.98 1 4 C9.25 4 17.5 4 26 4 C26 5.32 26 6.64 26 8 C17.75 8 9.5 8 1 8 C1 9.32 1 10.64 1 12 C11.23 12 21.46 12 32 12 C32 13.65 32 15.3 32 17 C8.9 17 -14.2 17 -38 17 C-38 15.35 -38 13.7 -38 12 C-27.44 12 -16.88 12 -6 12 C-6 10.68 -6 9.36 -6 8 C-5.01 8 -4.02 8 -3 8 C-3.062 7.237 -3.124 6.474 -3.188 5.688 C-3 3 -3 3 -1.5 1.188 C-1.005 0.796 -0.51 0.404 0 0 Z " fill="#202D47" transform="translate(270,206)"/>
<path d="M0 0 C2.357 3.325 3.814 6.804 5.188 10.625 C5.532 11.566 5.876 12.507 6.23 13.477 C7 16 7 16 7 19 C5.788 19.073 5.788 19.073 4.551 19.148 C3.482 19.223 2.414 19.298 1.312 19.375 C0.257 19.445 -0.799 19.514 -1.887 19.586 C-4.907 19.988 -7.241 20.741 -10 22 C-9.34 21.01 -8.68 20.02 -8 19 C-7.549 16.951 -7.549 16.951 -7.375 14.812 C-7.251 13.554 -7.128 12.296 -7 11 C-8.98 11 -10.96 11 -13 11 C-13 12.32 -13 13.64 -13 15 C-19.93 15 -26.86 15 -34 15 C-34 10.38 -34 5.76 -34 1 C-33.67 1 -33.34 1 -33 1 C-32.67 2.98 -32.34 4.96 -32 7 C-31.34 6.67 -30.68 6.34 -30 6 C-26.264 7.472 -26.264 7.472 -25 10 C-23.105 10.465 -23.105 10.465 -20.938 10.625 C-19.638 10.749 -18.339 10.873 -17 11 C-17.289 10.374 -17.577 9.747 -17.875 9.102 C-18.246 8.284 -18.617 7.467 -19 6.625 C-19.371 5.813 -19.742 5.001 -20.125 4.164 C-21 2 -21 2 -21 0 C-14.398 -1.704 -6.571 -1.709 0 0 Z " fill="#F6F6F7" transform="translate(536,233)"/>
<path d="M0 0 C0 19.14 0 38.28 0 58 C-0.66 58 -1.32 58 -2 58 C-2.025 57.208 -2.05 56.417 -2.076 55.601 C-2.192 52.005 -2.315 48.409 -2.438 44.812 C-2.477 43.567 -2.516 42.321 -2.557 41.037 C-2.599 39.835 -2.64 38.633 -2.684 37.395 C-2.72 36.29 -2.757 35.185 -2.795 34.046 C-3.074 29.901 -3.96 26.012 -5 22 C-4.34 22 -3.68 22 -3 22 C-3.66 21.34 -4.32 20.68 -5 20 C-5.459 20.338 -5.918 20.675 -6.391 21.023 C-9.522 23.3 -12.535 25.267 -16 27 C-16.33 27.66 -16.66 28.32 -17 29 C-16.34 29.33 -15.68 29.66 -15 30 C-15.99 32.64 -16.98 35.28 -18 38 C-18.33 38 -18.66 38 -19 38 C-19.174 33.438 -19.281 28.877 -19.375 24.312 C-19.425 23.019 -19.476 21.725 -19.527 20.393 C-19.672 11.077 -19.672 11.077 -17.82 8.108 C-16.301 6.816 -16.301 6.816 -13 5 C-11.679 4.091 -11.679 4.091 -10.332 3.164 C-9.501 2.656 -8.669 2.148 -7.812 1.625 C-6.973 1.102 -6.134 0.578 -5.27 0.039 C-3 -1 -3 -1 0 0 Z " fill="#1767FB" transform="translate(145,227)"/>
<path d="M0 0 C0 6.6 0 13.2 0 20 C-0.66 20 -1.32 20 -2 20 C-2 20.66 -2 21.32 -2 22 C-3.64 22.897 -3.64 22.897 -5.312 23.812 C-7.942 25.302 -9.913 26.803 -12 29 C-12.66 29 -13.32 29 -14 29 C-14.99 31.475 -14.99 31.475 -16 34 C-16.66 34 -17.32 34 -18 34 C-18 52.48 -18 70.96 -18 90 C-18.33 90 -18.66 90 -19 90 C-19.093 79.916 -19.164 69.833 -19.207 59.749 C-19.228 55.067 -19.256 50.385 -19.302 45.702 C-19.345 41.183 -19.369 36.664 -19.38 32.145 C-19.387 30.421 -19.401 28.697 -19.423 26.974 C-19.452 24.558 -19.456 22.144 -19.454 19.728 C-19.468 19.016 -19.483 18.305 -19.498 17.572 C-19.458 12.758 -18.382 10.391 -15 7 C-12.344 4.98 -12.344 4.98 -9.5 3.188 C-8.562 2.583 -7.623 1.978 -6.656 1.355 C-4 0 -4 0 0 0 Z " fill="#0CB5F9" transform="translate(115,184)"/>
<path d="M0 0 C0.33 0 0.66 0 1 0 C1.233 4.374 1.375 8.747 1.5 13.125 C1.601 14.981 1.601 14.981 1.703 16.875 C1.897 25.88 1.897 25.88 -0.7 29.123 C-2.737 30.653 -4.738 31.837 -7 33 C-8.112 33.781 -9.217 34.571 -10.312 35.375 C-13 37 -13 37 -16 37 C-16 29.08 -16 21.16 -16 13 C-15.34 13 -14.68 13 -14 13 C-14 12.01 -14 11.02 -14 10 C-13.397 9.746 -12.793 9.492 -12.172 9.23 C-6.181 6.777 -6.181 6.777 -1 3 C-0.67 2.01 -0.34 1.02 0 0 Z " fill="#0F8FFB" transform="translate(80,222)"/>
<path d="M0 0 C0.33 0 0.66 0 1 0 C1 10.89 1 21.78 1 33 C0.67 32.34 0.34 31.68 0 31 C-1.32 31 -2.64 31 -4 31 C-3.67 32.32 -3.34 33.64 -3 35 C-3.603 35.254 -4.207 35.508 -4.828 35.77 C-10.757 38.296 -10.757 38.296 -16 42 C-17.15 37.91 -17.111 33.968 -17.062 29.75 C-17.058 29.005 -17.053 28.26 -17.049 27.492 C-17.037 25.661 -17.019 23.831 -17 22 C-16.34 22 -15.68 22 -15 22 C-15.12 21.09 -15.24 20.18 -15.363 19.242 C-15 16 -15 16 -12.48 13.883 C-11.394 13.303 -10.307 12.723 -9.188 12.125 C-7.569 11.232 -7.569 11.232 -5.918 10.32 C-3 9 -3 9 0 9 C0 6.03 0 3.06 0 0 Z " fill="#0E71FB" transform="translate(171,192)"/>
<path d="M0 0 C0.66 0.33 1.32 0.66 2 1 C2 10.24 2 19.48 2 29 C1.01 28.34 0.02 27.68 -1 27 C-1.99 27.66 -2.98 28.32 -4 29 C-6.188 28.625 -6.188 28.625 -8 28 C-8.784 28.99 -9.567 29.98 -10.375 31 C-11.674 32.485 -11.674 32.485 -13 34 C-13.66 34 -14.32 34 -15 34 C-15.116 30.25 -15.187 26.501 -15.25 22.75 C-15.284 21.687 -15.317 20.623 -15.352 19.527 C-15.364 18.503 -15.377 17.478 -15.391 16.422 C-15.412 15.479 -15.433 14.537 -15.454 13.565 C-14.686 9.226 -11.706 7.507 -8.273 5.043 C-6.839 4.125 -6.839 4.125 -5.375 3.188 C-4.413 2.562 -3.452 1.937 -2.461 1.293 C-1.649 0.866 -0.837 0.44 0 0 Z " fill="#116AFC" transform="translate(196,184)"/>
<path d="M0 0 C0.66 0 1.32 0 2 0 C2.33 4.95 2.66 9.9 3 15 C3.99 15 4.98 15 6 15 C6 14.01 6 13.02 6 12 C6.66 12 7.32 12 8 12 C8.33 10.68 8.66 9.36 9 8 C22.53 8 36.06 8 50 8 C50 9.65 50 11.3 50 13 C36.14 13 22.28 13 8 13 C8.33 13.66 8.66 14.32 9 15 C29.295 15.495 29.295 15.495 50 16 C49.505 17.485 49.505 17.485 49 19 C49 18.34 49 17.68 49 17 C35.8 17 22.6 17 9 17 C9 19.64 9 22.28 9 25 C6.03 25 3.06 25 0 25 C0 16.75 0 8.5 0 0 Z " fill="#505A6F" transform="translate(238,230)"/>
<path d="M0 0 C2.97 0 5.94 0 9 0 C8.224 3.104 7.473 5.25 6 8 C6.904 7.977 7.807 7.954 8.738 7.93 C9.918 7.912 11.097 7.894 12.312 7.875 C14.07 7.84 14.07 7.84 15.863 7.805 C19 8 19 8 22 10 C4.675 10.495 4.675 10.495 -13 11 C-13.33 12.32 -13.66 13.64 -14 15 C-15.98 15.33 -17.96 15.66 -20 16 C-19.67 16.99 -19.34 17.98 -19 19 C-18.01 18.67 -17.02 18.34 -16 18 C-12.994 21.006 -13.404 23.824 -13 28 C-13.66 28.33 -14.32 28.66 -15 29 C-14.67 31.31 -14.34 33.62 -14 36 C-15.938 35.625 -15.938 35.625 -18 35 C-18.33 34.34 -18.66 33.68 -19 33 C-19.495 35.475 -19.495 35.475 -20 38 C-20.33 38 -20.66 38 -21 38 C-21.074 33.64 -21.129 29.281 -21.165 24.92 C-21.18 23.437 -21.2 21.954 -21.226 20.471 C-21.263 18.339 -21.28 16.207 -21.293 14.074 C-21.309 12.791 -21.324 11.508 -21.341 10.186 C-21 7 -21 7 -19.732 5.09 C-17.68 3.798 -16.404 3.579 -13.988 3.488 C-13.231 3.453 -12.474 3.417 -11.693 3.381 C-10.908 3.358 -10.122 3.336 -9.312 3.312 C-8.117 3.261 -8.117 3.261 -6.896 3.209 C-4.931 3.127 -2.966 3.062 -1 3 C-0.67 2.01 -0.34 1.02 0 0 Z " fill="#1B2843" transform="translate(502,187)"/>
<path d="M0 0 C2.64 0 5.28 0 8 0 C8.33 4.62 8.66 9.24 9 14 C15.93 14 22.86 14 30 14 C30.33 12.68 30.66 11.36 31 10 C32.98 10 34.96 10 37 10 C37.367 17.465 37.367 17.465 35.901 19.601 C33.076 21.68 30.761 21.406 27.285 21.434 C26.633 21.439 25.981 21.444 25.309 21.449 C23.931 21.456 22.554 21.455 21.176 21.446 C19.073 21.438 16.972 21.466 14.869 21.498 C13.529 21.5 12.188 21.499 10.848 21.496 C9.631 21.498 8.414 21.5 7.16 21.502 C4 21 4 21 1.596 19.226 C-0.14 16.805 -0.479 15.816 -0.391 12.891 C-0.378 12.137 -0.365 11.382 -0.352 10.605 C-0.318 9.828 -0.285 9.051 -0.25 8.25 C-0.232 7.457 -0.214 6.664 -0.195 5.848 C-0.148 3.898 -0.077 1.949 0 0 Z " fill="#1E2B45" transform="translate(492,234)"/>
<path d="M0 0 C2.64 0 5.28 0 8 0 C8.33 2.31 8.66 4.62 9 7 C15.6 7 22.2 7 29 7 C29 8.98 29 10.96 29 13 C13.49 13 -2.02 13 -18 13 C-18 11.02 -18 9.04 -18 7 C-11.73 7 -5.46 7 1 7 C0.67 4.69 0.34 2.38 0 0 Z " fill="#202C46" transform="translate(435,187)"/>
<path d="M0 0 C8.58 0 17.16 0 26 0 C26 4.29 26 8.58 26 13 C17.42 13 8.84 13 0 13 C0 8.71 0 4.42 0 0 Z " fill="#FEFEFE" transform="translate(427,235)"/>
<path d="M0 0 C3.175 -0.216 5.343 -0.356 8.179 1.179 C10 3 10 3 10.454 5.452 C10.433 6.4 10.412 7.348 10.391 8.324 C10.378 9.352 10.365 10.38 10.352 11.439 C10.318 12.511 10.285 13.583 10.25 14.688 C10.232 15.771 10.214 16.854 10.195 17.971 C10.148 20.648 10.082 23.324 10 26 C9.34 26 8.68 26 8 26 C7.944 24.194 7.944 24.194 7.887 22.352 C7.821 20.776 7.755 19.2 7.688 17.625 C7.654 16.434 7.654 16.434 7.619 15.219 C7.522 13.138 7.27 11.066 7 9 C6.01 8.34 5.02 7.68 4 7 C4 6.01 4 5.02 4 4 C3.34 4 2.68 4 2 4 C2 5.65 2 7.3 2 9 C-11.53 9 -25.06 9 -39 9 C-39 7.35 -39 5.7 -39 4 C-26.13 3.67 -13.26 3.34 0 3 C0 2.01 0 1.02 0 0 Z " fill="#3A445B" transform="translate(286,226)"/>
<path d="M0 0 C1.985 3.339 2.985 6.092 3 10 C1.16 14.064 -1.719 17.455 -4.512 20.898 C-6.426 23.285 -7.827 25.215 -9 28 C-9.66 28 -10.32 28 -11 28 C-11 26.02 -11 24.04 -11 22 C-11.969 21.546 -12.939 21.093 -13.938 20.625 C-17 19 -17 19 -18 17 C-16.883 15.494 -15.756 13.996 -14.625 12.5 C-13.999 11.665 -13.372 10.829 -12.727 9.969 C-12.157 9.319 -11.587 8.669 -11 8 C-10.34 8 -9.68 8 -9 8 C-9.062 7.051 -9.124 6.102 -9.188 5.125 C-9.126 4.094 -9.064 3.062 -9 2 C-5.565 -0.29 -4.015 -0.178 0 0 Z " fill="#F5F5F7" transform="translate(361,227)"/>
<path d="M0 0 C0.33 0.66 0.66 1.32 1 2 C3.527 2.656 3.527 2.656 6 3 C5.67 3.99 5.34 4.98 5 6 C9.62 6 14.24 6 19 6 C18.01 6.495 18.01 6.495 17 7 C16.567 7.866 16.567 7.866 16.125 8.75 C14.67 11.659 13.378 13.75 11 16 C7.335 15.871 4.466 15.155 1 14 C1 13.01 1 12.02 1 11 C-0.32 10.67 -1.64 10.34 -3 10 C-3.66 11.65 -4.32 13.3 -5 15 C-4.051 15.309 -3.103 15.619 -2.125 15.938 C1 17 1 17 3 18 C3 20.31 3 22.62 3 25 C2.01 25.33 1.02 25.66 0 26 C0 25.34 0 24.68 0 24 C-1.65 23.67 -3.3 23.34 -5 23 C-3.68 22.01 -2.36 21.02 -1 20 C-2.98 18.68 -4.96 17.36 -7 16 C-6.443 12.656 -5.648 9.967 -4 7 C-5.65 7 -7.3 7 -9 7 C-9 5.02 -9 3.04 -9 1 C-4.545 0.505 -4.545 0.505 0 0 Z " fill="#26334C" transform="translate(326,225)"/>
<path d="M0 0 C0.33 0 0.66 0 1 0 C1.029 4.479 1.047 8.958 1.062 13.438 C1.071 14.698 1.079 15.958 1.088 17.256 C1.124 31.215 1.124 31.215 0 37 C-2.485 38.937 -5.041 39.963 -8 41 C-11.386 42.232 -11.386 42.232 -14 44 C-14.975 47.09 -14.975 47.09 -15 50 C-15.66 50 -16.32 50 -17 50 C-17 42.08 -17 34.16 -17 26 C-16.67 26 -16.34 26 -16 26 C-16 28.64 -16 31.28 -16 34 C-10.885 30.421 -6.869 26.893 -3 22 C-2.34 21.67 -1.68 21.34 -1 21 C-0.67 14.07 -0.34 7.14 0 0 Z " fill="#0C86FB" transform="translate(171,164)"/>
<path d="M0 0 C0.66 0.66 1.32 1.32 2 2 C3.32 1.67 4.64 1.34 6 1 C6 8.26 6 15.52 6 23 C4.02 23.66 2.04 24.32 0 25 C0 23.35 0 21.7 0 20 C-13.53 20 -27.06 20 -41 20 C-41 19.67 -41 19.34 -41 19 C-27.47 18.67 -13.94 18.34 0 18 C0 17.34 0 16.68 0 16 C0 13.69 0 11.38 0 9 C-13.53 9 -27.06 9 -41 9 C-41 8.67 -41 8.34 -41 8 C-28.79 7.67 -16.58 7.34 -4 7 C-22.315 6.505 -22.315 6.505 -41 6 C-41 5.67 -41 5.34 -41 5 C-27.47 5 -13.94 5 0 5 C0 3.35 0 1.7 0 0 Z " fill="#13213C" transform="translate(530,198)"/>
<path d="M0 0 C13.86 0 27.72 0 42 0 C42 1.98 42 3.96 42 6 C28.14 6 14.28 6 0 6 C0 4.02 0 2.04 0 0 Z " fill="#28344E" transform="translate(419,218)"/>
<path d="M0 0 C13.86 0 27.72 0 42 0 C42 1.98 42 3.96 42 6 C28.14 6 14.28 6 0 6 C0 4.02 0 2.04 0 0 Z " fill="#1D2A44" transform="translate(419,206)"/>
<path d="M0 0 C13.53 0 27.06 0 41 0 C41 1.65 41 3.3 41 5 C40 6 40 6 36.215 6.114 C34.527 6.113 32.84 6.108 31.152 6.098 C29.823 6.096 29.823 6.096 28.466 6.093 C25.623 6.088 22.78 6.075 19.938 6.062 C18.015 6.057 16.092 6.053 14.17 6.049 C9.447 6.038 4.723 6.021 0 6 C0 4.02 0 2.04 0 0 Z " fill="#E2E3E7" transform="translate(489,218)"/>
<path d="M0 0 C0.99 0.99 1.98 1.98 3 3 C2.67 3.33 2.34 3.66 2 4 C2.66 4.33 3.32 4.66 4 5 C4 4.34 4 3.68 4 3 C6.962 3.613 8.381 4.254 11 6 C11.99 5.01 12.98 4.02 14 3 C15.673 4.953 17.338 6.912 19 8.875 C19.477 9.431 19.954 9.986 20.445 10.559 C24 14.773 24 14.773 24 17 C20.804 17.666 18.176 17.83 15 17 C12.489 14.617 10.605 12.123 8.629 9.285 C7.202 6.906 7.202 6.906 5 6 C4.773 6.701 4.546 7.403 4.312 8.125 C2.632 11.805 0.967 14.226 -2 17 C-4.855 17.514 -7.071 17.298 -10 17 C-9.42 12.74 -6.876 9.648 -4.438 6.25 C-4.013 5.648 -3.588 5.046 -3.15 4.426 C-2.106 2.947 -1.054 1.473 0 0 Z " fill="#212F49" transform="translate(362,238)"/>
<path d="M0 0 C2.746 0.023 2.746 0.023 7.371 0.648 C7.371 5.268 7.371 9.888 7.371 14.648 C10.011 14.648 12.651 14.648 15.371 14.648 C15.371 14.978 15.371 15.308 15.371 15.648 C9.431 16.143 9.431 16.143 3.371 16.648 C3.041 17.968 2.711 19.288 2.371 20.648 C-0.269 20.648 -2.909 20.648 -5.629 20.648 C-4.309 19.328 -2.989 18.008 -1.629 16.648 C-3.083 16.277 -3.083 16.277 -4.566 15.898 C-7.629 14.648 -7.629 14.648 -8.465 12.898 C-8.759 8.859 -6.736 6.076 -4.664 2.734 C-2.629 0.648 -2.629 0.648 0 0 Z " fill="#F0F1F3" transform="translate(323.62890625,205.3515625)"/>
<path d="M0 0 C0.66 0.33 1.32 0.66 2 1 C1.67 1.66 1.34 2.32 1 3 C1.784 2.67 2.567 2.34 3.375 2 C6 1 6 1 8 1 C8.623 4.83 8.845 8.193 8 12 C5.082 15.107 1.732 16.995 -2 19 C-2.893 19.557 -3.787 20.114 -4.707 20.688 C-7 22 -7 22 -9 22 C-9 16.72 -9 11.44 -9 6 C-7.68 5.34 -6.36 4.68 -5 4 C-3.311 2.695 -1.64 1.366 0 0 Z " fill="#118DFB" transform="translate(136,203)"/>
<path d="M0 0 C0 15.51 0 31.02 0 47 C-0.33 47 -0.66 47 -1 47 C-1.495 27.695 -1.495 27.695 -2 8 C-2.99 8.66 -3.98 9.32 -5 10 C-5.99 10 -6.98 10 -8 10 C-8.227 10.598 -8.454 11.196 -8.688 11.812 C-10.356 14.593 -12.128 15.564 -15 17 C-15.66 17 -16.32 17 -17 17 C-17.33 30.53 -17.66 44.06 -18 58 C-18.33 58 -18.66 58 -19 58 C-19.178 51.417 -19.3 44.834 -19.385 38.249 C-19.42 36.01 -19.467 33.771 -19.528 31.533 C-19.613 28.311 -19.653 25.091 -19.684 21.867 C-19.72 20.87 -19.756 19.873 -19.793 18.846 C-19.797 12.018 -19.797 12.018 -17.476 9.052 C-15.718 7.528 -13.964 6.242 -12 5 C-11.243 4.446 -10.487 3.891 -9.707 3.32 C-9.082 2.926 -8.457 2.531 -7.812 2.125 C-7.18 1.715 -6.547 1.305 -5.895 0.883 C-4 0 -4 0 0 0 Z " fill="#1AB1FA" transform="translate(82,201)"/>
<path d="M0 0 C2.97 0 5.94 0 9 0 C9 0.99 9 1.98 9 3 C13.62 3 18.24 3 23 3 C23 4.65 23 6.3 23 8 C18.38 8 13.76 8 9 8 C9 9.32 9 10.64 9 12 C6.03 12 3.06 12 0 12 C0 11.01 0 10.02 0 9 C-7.92 9 -15.84 9 -24 9 C-24 8.67 -24 8.34 -24 8 C-17.73 7.67 -11.46 7.34 -5 7 C-5 6.34 -5 5.68 -5 5 C-11.27 4.67 -17.54 4.34 -24 4 C-24 3.67 -24 3.34 -24 3 C-16.08 3 -8.16 3 0 3 C0 2.01 0 1.02 0 0 Z " fill="#3E495F" transform="translate(279,187)"/>
<path d="M0 0 C4.184 0.672 5.831 1.247 8.5 4.562 C9.21 7.709 9.21 10.416 8.5 13.562 C5.84 16.868 4.157 17.445 0 18.188 C-3.5 17.562 -3.5 17.562 -6.438 14.938 C-8.688 11.255 -9.394 9.766 -8.5 5.562 C-5.886 1.918 -4.458 0.716 0 0 Z " fill="#10C0FA" transform="translate(97.5,163.4375)"/>
<path d="M0 0 C0.33 0 0.66 0 1 0 C1 2.97 1 5.94 1 9 C0.34 9 -0.32 9 -1 9 C-1 9.66 -1 10.32 -1 11 C-2.64 11.897 -2.64 11.897 -4.312 12.812 C-6.942 14.302 -8.913 15.803 -11 18 C-11.66 18 -12.32 18 -13 18 C-13.99 20.475 -13.99 20.475 -15 23 C-15.66 23 -16.32 23 -17 23 C-17 41.48 -17 59.96 -17 79 C-17.33 79 -17.66 79 -18 79 C-18 53.26 -18 27.52 -18 1 C-17.67 1 -17.34 1 -17 1 C-16.67 3.97 -16.34 6.94 -16 10 C-11.311 8.026 -6.999 6.199 -3 3 C-2.34 3 -1.68 3 -1 3 C-0.67 2.01 -0.34 1.02 0 0 Z " fill="#21A7FA" transform="translate(114,195)"/>
<path d="M0 0 C2.5 1.5 2.5 1.5 4 4 C4.786 7.993 4.601 10.954 2.562 14.5 C-1.246 16.729 -4.701 16.907 -9 16 C-12.06 13.462 -12.835 11.883 -13.562 8 C-12.11 0.252 -6.855 -0.979 0 0 Z " fill="#1A54FC" transform="translate(181,258)"/>
<path d="M0 0 C0.058 3.125 0.094 6.25 0.125 9.375 C0.142 10.264 0.159 11.154 0.176 12.07 C0.185 13.346 0.185 13.346 0.195 14.648 C0.211 15.827 0.211 15.827 0.227 17.029 C0 19 0 19 -2 21 C-4.725 21.175 -7.347 21.231 -10.07 21.195 C-10.867 21.192 -11.663 21.19 -12.483 21.187 C-15.031 21.176 -17.578 21.15 -20.125 21.125 C-21.85 21.115 -23.576 21.106 -25.301 21.098 C-29.534 21.076 -33.767 21.041 -38 21 C-38 20.67 -38 20.34 -38 20 C-28.76 20 -19.52 20 -10 20 C-10 19.34 -10 18.68 -10 18 C-11.736 18.017 -11.736 18.017 -13.508 18.035 C-15.047 18.045 -16.586 18.054 -18.125 18.062 C-18.886 18.071 -19.646 18.079 -20.43 18.088 C-24.739 18.106 -28.755 17.861 -33 17 C-33 16.67 -33 16.34 -33 16 C-20.625 15.505 -20.625 15.505 -8 15 C-7.67 11.04 -7.34 7.08 -7 3 C-3 0 -3 0 0 0 Z " fill="#15233D" transform="translate(461,233)"/>
<path d="M0 0 C0.66 0 1.32 0 2 0 C2.423 6.135 2.047 9.078 -2 14 C-3.626 15.707 -5.291 17.377 -7 19 C-7.66 19.784 -8.32 20.567 -9 21.375 C-11 23 -11 23 -13.75 22.75 C-14.493 22.502 -15.235 22.255 -16 22 C-16 19.36 -16 16.72 -16 14 C-15.34 14 -14.68 14 -14 14 C-13.762 13.254 -13.523 12.507 -13.277 11.738 C-11.805 8.581 -10.326 7.27 -7.562 5.188 C-6.78 4.583 -5.998 3.978 -5.191 3.355 C-3 2 -3 2 0 2 C0 1.34 0 0.68 0 0 Z " fill="#0D9BFA" transform="translate(113,204)"/>
<path d="M0 0 C13.2 0 26.4 0 40 0 C40 1.65 40 3.3 40 5 C26.8 5 13.6 5 0 5 C0 3.35 0 1.7 0 0 Z " fill="#F5F6F7" transform="translate(489,208)"/>
<path d="M0 0 C13.2 0 26.4 0 40 0 C40 1.65 40 3.3 40 5 C26.8 5 13.6 5 0 5 C0 3.35 0 1.7 0 0 Z " fill="#FBFCFC" transform="translate(489,197)"/>
<path d="M0 0 C0 5.28 0 10.56 0 16 C-2.475 15.01 -2.475 15.01 -5 14 C-5 12.68 -5 11.36 -5 10 C-18.53 10 -32.06 10 -46 10 C-46.33 9.01 -46.66 8.02 -47 7 C-33.14 7 -19.28 7 -5 7 C-4.67 5.68 -4.34 4.36 -4 3 C-1.429 0 -1.429 0 0 0 Z " fill="#15233E" transform="translate(293,236)"/>
<path d="M0 0 C0.33 0.99 0.66 1.98 1 3 C3.64 3 6.28 3 9 3 C9 2.01 9 1.02 9 0 C16.92 0 24.84 0 33 0 C33 0.99 33 1.98 33 3 C36.3 3 39.6 3 43 3 C43 2.34 43 1.68 43 1 C45.31 1 47.62 1 50 1 C48.672 2.984 48.672 2.984 46 5 C42.409 5.516 38.868 5.375 35.25 5.25 C33.775 5.223 33.775 5.223 32.27 5.195 C29.845 5.148 27.423 5.083 25 5 C25 4.01 25 3.02 25 2 C22.36 2 19.72 2 17 2 C17 2.99 17 3.98 17 5 C12.563 5.116 8.126 5.187 3.688 5.25 C2.425 5.284 1.162 5.317 -0.139 5.352 C-1.951 5.371 -1.951 5.371 -3.801 5.391 C-5.474 5.422 -5.474 5.422 -7.181 5.454 C-10 5 -10 5 -13 1 C-6.565 0.505 -6.565 0.505 0 0 Z " fill="#F6F7F8" transform="translate(246,196)"/>
<path d="M0 0 C0.66 0 1.32 0 2 0 C2.495 1.485 2.495 1.485 3 3 C3.66 2.67 4.32 2.34 5 2 C6.336 6.008 6.441 9.864 6.688 14.062 C6.747 14.891 6.807 15.719 6.869 16.572 C6.916 17.364 6.963 18.157 7.012 18.973 C7.081 20.059 7.081 20.059 7.151 21.168 C7 23 7 23 5 25 C2.091 25.145 -0.72 25.186 -3.625 25.125 C-4.427 25.116 -5.229 25.107 -6.055 25.098 C-8.037 25.074 -10.018 25.038 -12 25 C-12.495 22.525 -12.495 22.525 -13 20 C-10.918 19.777 -8.834 19.572 -6.75 19.375 C-5.59 19.259 -4.43 19.143 -3.234 19.023 C0 19 0 19 4 21 C4 16.38 4 11.76 4 7 C3.34 8.98 2.68 10.96 2 13 C1.691 12.361 1.381 11.721 1.062 11.062 C0.165 9.064 0.165 9.064 -1 8 C-3.955 7.84 -6.89 7.74 -9.848 7.684 C-11.177 7.652 -11.177 7.652 -12.534 7.621 C-15.377 7.555 -18.22 7.496 -21.062 7.438 C-22.985 7.394 -24.908 7.351 -26.83 7.307 C-31.553 7.199 -36.277 7.098 -41 7 C-41 6.67 -41 6.34 -41 6 C-27.8 5.67 -14.6 5.34 -1 5 C-0.67 3.35 -0.34 1.7 0 0 Z " fill="#1D2B46" transform="translate(288,230)"/>
<path d="M0 0 C3.3 0 6.6 0 10 0 C9.573 8.312 8.258 15.99 6 24 C5.34 24 4.68 24 4 24 C3.01 19.71 2.02 15.42 1 11 C-0.32 11 -1.64 11 -3 11 C-2.01 7.37 -1.02 3.74 0 0 Z " fill="#ECEDEF" transform="translate(363,202)"/>
<path d="M0 0 C22.44 0 44.88 0 68 0 C68 0.33 68 0.66 68 1 C66.35 1 64.7 1 63 1 C63 1.66 63 2.32 63 3 C59.865 3.931 57.127 4.094 53.864 4.022 C52.844 4.002 51.823 3.982 50.771 3.961 C49.676 3.934 48.581 3.907 47.453 3.879 C46.327 3.855 45.2 3.832 44.04 3.807 C40.443 3.731 36.847 3.647 33.25 3.562 C30.811 3.509 28.372 3.457 25.934 3.404 C19.956 3.275 13.978 3.14 8 3 C8 2.34 8 1.68 8 1 C5.36 1 2.72 1 0 1 C0 0.67 0 0.34 0 0 Z " fill="#ECEDEF" transform="translate(233,223)"/>
<path d="M0 0 C0.99 0 1.98 0 3 0 C3 27.39 3 54.78 3 83 C4.98 82.505 4.98 82.505 7 82 C7 82.66 7 83.32 7 84 C4.625 84.625 4.625 84.625 2 85 C-0.524 82.476 -0.235 80.926 -0.249 77.484 C-0.242 76.715 -0.234 75.946 -0.227 75.154 C-0.227 74.344 -0.228 73.534 -0.228 72.7 C-0.227 70.016 -0.211 67.332 -0.195 64.648 C-0.192 62.79 -0.189 60.932 -0.187 59.074 C-0.179 54.179 -0.159 49.283 -0.137 44.387 C-0.117 39.393 -0.108 34.4 -0.098 29.406 C-0.076 19.604 -0.042 9.802 0 0 Z " fill="#C9E1FC" transform="translate(151,176)"/>
<path d="M0 0 C1.457 -0.081 2.916 -0.139 4.375 -0.188 C5.187 -0.222 5.999 -0.257 6.836 -0.293 C7.55 -0.196 8.264 -0.1 9 0 C11.136 3.204 11.231 4.019 11.125 7.688 C11.107 8.496 11.089 9.304 11.07 10.137 C11.036 11.059 11.036 11.059 11 12 C11.99 11.67 12.98 11.34 14 11 C14 19.91 14 28.82 14 38 C11.03 38.495 11.03 38.495 8 39 C8 26.46 8 13.92 8 1 C5.36 1 2.72 1 0 1 C0 0.67 0 0.34 0 0 Z " fill="#3A465D" transform="translate(394,216)"/>
<path d="M0 0 C2.64 0 5.28 0 8 0 C6.628 7.483 4.078 14.056 1 21 C1.66 21.33 2.32 21.66 3 22 C2.01 22 1.02 22 0 22 C-0.33 21.01 -0.66 20.02 -1 19 C-2.98 18.67 -4.96 18.34 -7 18 C-4.69 12.06 -2.38 6.12 0 0 Z " fill="#222F49" transform="translate(407,187)"/>
<path d="M0 0 C2.051 0.033 4.102 0.065 6.152 0.098 C4.563 6.332 2.876 12.261 0.152 18.098 C-2.488 18.098 -5.128 18.098 -7.848 18.098 C-7.158 14.219 -6.099 10.582 -4.848 6.848 C-4.497 5.791 -4.146 4.734 -3.785 3.645 C-2.492 0.132 -2.492 0.132 0 0 Z " fill="#222E48" transform="translate(482.84765625,233.90234375)"/>
<path d="M0 0 C2.64 0 5.28 0 8 0 C8.821 1.871 9.631 3.747 10.438 5.625 C10.89 6.669 11.342 7.713 11.809 8.789 C12.958 11.887 13.573 14.732 14 18 C11.36 18 8.72 18 6 18 C4.996 15.376 3.997 12.751 3 10.125 C2.571 9.005 2.571 9.005 2.133 7.863 C0 2.227 0 2.227 0 0 Z " fill="#243049" transform="translate(529,234)"/>
<path d="M0 0 C0.33 0 0.66 0 1 0 C1.33 5.94 1.66 11.88 2 18 C2.99 17.01 3.98 16.02 5 15 C5.66 15 6.32 15 7 15 C7 11.37 7 7.74 7 4 C7.33 4 7.66 4 8 4 C8 7.96 8 11.92 8 16 C16.58 16 25.16 16 34 16 C34 16.33 34 16.66 34 17 C27.73 17.33 21.46 17.66 15 18 C20.61 18.33 26.22 18.66 32 19 C32 19.66 32 20.32 32 21 C27.765 21.217 23.529 21.414 19.292 21.592 C17.851 21.656 16.409 21.725 14.968 21.799 C12.898 21.905 10.829 21.992 8.758 22.074 C6.888 22.161 6.888 22.161 4.981 22.249 C3.997 22.167 3.014 22.085 2 22 C-0.102 18.847 -0.243 18.139 -0.195 14.551 C-0.189 13.703 -0.182 12.856 -0.176 11.982 C-0.159 11.101 -0.142 10.22 -0.125 9.312 C-0.116 8.42 -0.107 7.527 -0.098 6.607 C-0.074 4.405 -0.041 2.202 0 0 Z " fill="#333E56" transform="translate(419,232)"/>
<path d="M0 0 C0 0.99 0 1.98 0 3 C0.66 3 1.32 3 2 3 C2 3.99 2 4.98 2 6 C2.66 4.68 3.32 3.36 4 2 C6.31 2 8.62 2 11 2 C10.832 2.699 10.665 3.397 10.492 4.117 C10.289 5.027 10.085 5.937 9.875 6.875 C9.666 7.78 9.457 8.685 9.242 9.617 C9.162 10.404 9.082 11.19 9 12 C9.66 12.66 10.32 13.32 11 14 C6.71 14 2.42 14 -2 14 C-2 9.71 -2 5.42 -2 1 C-4.64 1 -7.28 1 -10 1 C-10 0.67 -10 0.34 -10 0 C-2.25 -1.125 -2.25 -1.125 0 0 Z " fill="#E6E7EA" transform="translate(341,186)"/>
<path d="M0 0 C2.31 0 4.62 0 7 0 C7.33 0.66 7.66 1.32 8 2 C9.65 1.67 11.3 1.34 13 1 C13 4.63 13 8.26 13 12 C8.38 12 3.76 12 -1 12 C-0.34 11.34 0.32 10.68 1 10 C1.023 7.55 1.023 7.55 0.625 4.875 C0.514 3.965 0.403 3.055 0.289 2.117 C0.194 1.419 0.098 0.72 0 0 Z " fill="#E7E8EA" transform="translate(318,188)"/>
<path d="M0 0 C0.66 0.66 1.32 1.32 2 2 C5.009 2.246 7.932 2.374 10.945 2.414 C11.83 2.433 12.715 2.453 13.627 2.473 C16.46 2.533 19.292 2.579 22.125 2.625 C24.043 2.663 25.961 2.702 27.879 2.742 C32.586 2.838 37.293 2.922 42 3 C42 3.99 42 4.98 42 6 C28.8 6.33 15.6 6.66 2 7 C1.67 7.99 1.34 8.98 1 10 C0.34 10 -0.32 10 -1 10 C-1 10.99 -1 11.98 -1 13 C-1.99 13 -2.98 13 -4 13 C-4 9.7 -4 6.4 -4 3 C-2.68 3 -1.36 3 0 3 C0 2.01 0 1.02 0 0 Z " fill="#13213C" transform="translate(245,232)"/>
<path d="M0 0 C3.133 -0.372 3.133 -0.372 7.125 -0.363 C7.828 -0.364 8.53 -0.364 9.254 -0.365 C10.741 -0.362 12.227 -0.353 13.713 -0.336 C15.991 -0.313 18.268 -0.316 20.547 -0.322 C31.721 -0.279 31.721 -0.279 34 2 C32 4 32 4 29.298 4.243 C27.611 4.237 27.611 4.237 25.891 4.23 C24.661 4.229 23.431 4.227 22.164 4.225 C20.872 4.212 19.581 4.2 18.25 4.188 C16.974 4.187 15.698 4.186 14.383 4.186 C8.792 4.159 3.507 4.043 -2 3 C-1.34 2.01 -0.68 1.02 0 0 Z " fill="#1C2A45" transform="translate(498,213)"/>
<path d="M0 0 C0.33 1.32 0.66 2.64 1 4 C-0.98 4.33 -2.96 4.66 -5 5 C-4.67 5.99 -4.34 6.98 -4 8 C-3.01 7.67 -2.02 7.34 -1 7 C2.006 10.006 1.596 12.824 2 17 C1.34 17.33 0.68 17.66 0 18 C0.33 20.31 0.66 22.62 1 25 C-0.938 24.625 -0.938 24.625 -3 24 C-3.33 23.34 -3.66 22.68 -4 22 C-4.33 23.65 -4.66 25.3 -5 27 C-5.33 27 -5.66 27 -6 27 C-6 18.75 -6 10.5 -6 2 C-2 1 -2 1 0 2 C0 1.34 0 0.68 0 0 Z " fill="#19253F" transform="translate(487,198)"/>
<path d="M0 0 C1.125 1.5 1.125 1.5 2 4 C1.576 6.777 0.811 9.296 0 12 C-0.99 12 -1.98 12 -3 12 C-3 10.68 -3 9.36 -3 8 C-11.25 8 -19.5 8 -28 8 C-28 6.68 -28 5.36 -28 4 C-18.76 4 -9.52 4 0 4 C0 2.68 0 1.36 0 0 Z " fill="#E0E1E5" transform="translate(299,202)"/>
<path d="M0 0 C2.97 0.33 5.94 0.66 9 1 C9 1.33 9 1.66 9 2 C6.69 2 4.38 2 2 2 C2.678 3.99 3.394 5.967 4.125 7.938 C4.519 9.04 4.914 10.142 5.32 11.277 C6.775 14.326 6.775 14.326 10.18 14.879 C11.11 14.919 12.041 14.959 13 15 C10.544 17.806 8.726 18.936 4.996 19.266 C1.989 19.251 -0.998 19.172 -4 19 C-4 18.01 -4 17.02 -4 16 C-4.99 15.67 -5.98 15.34 -7 15 C-4.69 15 -2.38 15 0 15 C0 10.05 0 5.1 0 0 Z " fill="#FDFDFD" transform="translate(339,206)"/>
<path d="M0 0 C0.33 0 0.66 0 1 0 C1.33 1.98 1.66 3.96 2 6 C2.66 5.67 3.32 5.34 4 5 C7.736 6.472 7.736 6.472 9 9 C10.895 9.465 10.895 9.465 13.062 9.625 C14.362 9.749 15.661 9.873 17 10 C16.67 9.01 16.34 8.02 16 7 C16.66 6.67 17.32 6.34 18 6 C19.765 9.088 20 10.233 20 14 C13.4 14 6.8 14 0 14 C0 9.38 0 4.76 0 0 Z " fill="#F9F9FA" transform="translate(502,234)"/>
<path d="M0 0 C8.91 0 17.82 0 27 0 C27.495 1.485 27.495 1.485 28 3 C29.98 3 31.96 3 34 3 C34 3.33 34 3.66 34 4 C20.14 4 6.28 4 -8 4 C-8 3.67 -8 3.34 -8 3 C-5.36 3 -2.72 3 0 3 C0 2.01 0 1.02 0 0 Z " fill="#FDFDFD" transform="translate(427,201)"/>
<path d="M0 0 C20.295 0.495 20.295 0.495 41 1 C41 1.99 41 2.98 41 4 C27.47 4 13.94 4 0 4 C0 2.68 0 1.36 0 0 Z " fill="#1D2A45" transform="translate(419,218)"/>
<path d="M0 0 C5.072 -0.099 10.143 -0.171 15.216 -0.22 C16.942 -0.24 18.667 -0.267 20.393 -0.302 C22.873 -0.35 25.352 -0.373 27.832 -0.391 C28.604 -0.411 29.376 -0.432 30.171 -0.453 C32.355 -0.454 32.355 -0.454 36 0 C38.01 2.024 38.01 2.024 39 4 C37.35 4.33 35.7 4.66 34 5 C34 7.64 34 10.28 34 13 C33.67 13 33.34 13 33 13 C32.67 14.98 32.34 16.96 32 19 C31.67 19 31.34 19 31 19 C31 14.71 31 10.42 31 6 C29.02 6 27.04 6 25 6 C25 5.67 25 5.34 25 5 C28.465 4.505 28.465 4.505 32 4 C32 3.34 32 2.68 32 2 C21.44 2 10.88 2 0 2 C0 1.34 0 0.68 0 0 Z " fill="#2D3951" transform="translate(422,229)"/>
<path d="M0 0 C15.18 0 30.36 0 46 0 C46.495 0.99 46.495 0.99 47 2 C46.34 2 45.68 2 45 2 C45.186 2.536 45.371 3.072 45.562 3.625 C46.114 6.62 45.606 9.037 45 12 C44.67 12 44.34 12 44 12 C44 10.02 44 8.04 44 6 C30.47 6 16.94 6 3 6 C3 5.67 3 5.34 3 5 C20.325 4.505 20.325 4.505 38 4 C37.505 3.01 37.505 3.01 37 2 C18.685 1.505 18.685 1.505 0 1 C0 0.67 0 0.34 0 0 Z " fill="#E5E6EA" transform="translate(417,200)"/>
<path d="M0 0 C13.2 0 26.4 0 40 0 C40 0.99 40 1.98 40 3 C26.8 3 13.6 3 0 3 C0 2.01 0 1.02 0 0 Z " fill="#FBFBFC" transform="translate(247,239)"/>
<path d="M0 0 C13.2 0 26.4 0 40 0 C40 0.99 40 1.98 40 3 C26.8 3 13.6 3 0 3 C0 2.01 0 1.02 0 0 Z " fill="#FAFAFA" transform="translate(247,231)"/>
<path d="M0 0 C13.86 0 27.72 0 42 0 C42 0.33 42 0.66 42 1 C37.545 1.495 37.545 1.495 33 2 C35.97 2.33 38.94 2.66 42 3 C42 3.33 42 3.66 42 4 C28.14 4 14.28 4 0 4 C0 2.667 0 1.333 0 0 Z " fill="#F1F2F3" transform="translate(419,212)"/>
<path d="M0 0 C0 0.99 0 1.98 0 3 C1.32 3.33 2.64 3.66 4 4 C2.962 10.067 1.66 15.437 -1 21 C-1.33 21 -1.66 21 -2 21 C-2.103 19.886 -2.206 18.773 -2.312 17.625 C-2.539 16.429 -2.766 15.232 -3 14 C-3.99 13.34 -4.98 12.68 -6 12 C-4.125 4.25 -4.125 4.25 -3 2 C-4.32 1.67 -5.64 1.34 -7 1 C-4.509 0.313 -2.621 0 0 0 Z " fill="#F6F6F7" transform="translate(355,186)"/>
<path d="M0 0 C0.66 0.33 1.32 0.66 2 1 C1.67 2.32 1.34 3.64 1 5 C0.01 5 -0.98 5 -2 5 C-2 5.66 -2 6.32 -2 7 C-2.784 7.433 -3.567 7.866 -4.375 8.312 C-7.467 10.3 -7.766 11.651 -9 15 C-9.99 15.33 -10.98 15.66 -12 16 C-12.33 16.99 -12.66 17.98 -13 19 C-13.99 19 -14.98 19 -16 19 C-16.297 16.079 -16.49 13.851 -16 11 C-13.942 8.726 -12.537 7.572 -10 6 C-9.157 5.448 -8.314 4.897 -7.445 4.328 C-2.453 1.174 -2.453 1.174 0 0 Z " fill="#1675FB" transform="translate(142,226)"/>
<path d="M0 0 C1.134 0.021 2.269 0.041 3.438 0.062 C3.108 3.032 2.777 6.002 2.438 9.062 C8.377 9.062 14.317 9.062 20.438 9.062 C20.438 9.393 20.438 9.722 20.438 10.062 C14.168 10.062 7.897 10.062 1.438 10.062 C1.438 9.403 1.438 8.743 1.438 8.062 C0.777 8.062 0.118 8.062 -0.562 8.062 C-0.562 8.722 -0.562 9.382 -0.562 10.062 C-3.562 12.062 -3.562 12.062 -6.562 13.062 C-6.255 11.083 -5.941 9.104 -5.625 7.125 C-5.451 6.023 -5.277 4.921 -5.098 3.785 C-4.3 -0.272 -4.324 0.076 0 0 Z " fill="#37435B" transform="translate(363.5625,186.9375)"/>
<path d="M0 0 C3.96 0 7.92 0 12 0 C10.945 4.221 10.175 6.076 7 9 C3.587 8.882 1.06 8.53 -2 7 C-1.125 2.25 -1.125 2.25 0 0 Z " fill="#F3F4F5" transform="translate(330,232)"/>
<path d="M0 0 C13.2 0 26.4 0 40 0 C40 1.65 40 3.3 40 5 C39.505 3.515 39.505 3.515 39 2 C38.345 2.072 37.69 2.144 37.016 2.219 C29.981 2.934 23.066 3.092 16 3 C13.979 2.975 11.958 2.953 9.938 2.938 C9.06 2.926 8.182 2.914 7.277 2.902 C4.834 2.902 4.834 2.902 2 4 C2 3.34 2 2.68 2 2 C1.34 2 0.68 2 0 2 C0 1.34 0 0.68 0 0 Z " fill="#EFEFF2" transform="translate(489,197)"/>
<path d="M0 0 C0.99 0.99 1.98 1.98 3 3 C2.01 3.495 2.01 3.495 1 4 C1.66 4.66 2.32 5.32 3 6 C3.195 9.258 3.195 9.258 3.125 13.125 C3.107 14.406 3.089 15.688 3.07 17.008 C3.047 17.995 3.024 18.983 3 20 C1.02 20 -0.96 20 -3 20 C-3.081 17.603 -3.141 15.21 -3.188 12.812 C-3.225 11.802 -3.225 11.802 -3.264 10.771 C-3.329 6.291 -2.667 3.606 0 0 Z " fill="#17243F" transform="translate(335,200)"/>
<path d="M0 0 C2.64 0 5.28 0 8 0 C8.671 1.456 9.337 2.915 10 4.375 C10.557 5.593 10.557 5.593 11.125 6.836 C12 9 12 9 12 11 C9.36 11 6.72 11 4 11 C3.329 9.544 2.663 8.085 2 6.625 C1.629 5.813 1.257 5.001 0.875 4.164 C0 2 0 2 0 0 Z " fill="#28344D" transform="translate(507,233)"/>
<path d="M0 0 C8.58 0 17.16 0 26 0 C26 0.33 26 0.66 26 1 C17.75 1 9.5 1 1 1 C1 3.31 1 5.62 1 8 C1.66 8 2.32 8 3 8 C3 8.66 3 9.32 3 10 C8.94 10 14.88 10 21 10 C21.33 8.68 21.66 7.36 22 6 C22.66 6 23.32 6 24 6 C24.33 4.68 24.66 3.36 25 2 C25 5.3 25 8.6 25 12 C12.625 12.495 12.625 12.495 0 13 C0 8.71 0 4.42 0 0 Z " fill="#EAEBEE" transform="translate(427,235)"/>
<path d="M0 0 C2.64 0 5.28 0 8 0 C8 2.31 8 4.62 8 7 C6.68 7.33 5.36 7.66 4 8 C4 8.99 4 9.98 4 11 C3.34 11 2.68 11 2 11 C2 12.98 2 14.96 2 17 C1.34 17 0.68 17 0 17 C0 11.39 0 5.78 0 0 Z " fill="#212E48" transform="translate(492,234)"/>
<path d="M0 0 C2.31 0 4.62 0 7 0 C6.547 1.439 6.088 2.876 5.625 4.312 C5.37 5.113 5.115 5.914 4.852 6.738 C4 9 4 9 2 12 C-1.625 12.188 -1.625 12.188 -5 12 C-4.356 8.988 -3.35 6.483 -1.938 3.75 C-1.575 3.044 -1.213 2.337 -0.84 1.609 C-0.563 1.078 -0.286 0.547 0 0 Z " fill="#212D46" transform="translate(322,208)"/>
<path d="M0 0 C2.31 0 4.62 0 7 0 C7.674 1.434 8.339 2.873 9 4.312 C9.557 5.513 9.557 5.513 10.125 6.738 C11 9 11 9 11 12 C8.69 12 6.38 12 4 12 C3.329 10.377 2.663 8.751 2 7.125 C1.629 6.22 1.257 5.315 0.875 4.383 C0 2 0 2 0 0 Z " fill="#26324A" transform="translate(341,208)"/>
<path d="M0 0 C0.66 0 1.32 0 2 0 C5.71 7.097 5.71 7.097 6 10 C5.062 12.25 5.062 12.25 4 14 C4 13.34 4 12.68 4 12 C1.668 10.794 -0.496 9.835 -3 9 C-3 9.66 -3 10.32 -3 11 C-3.99 10.67 -4.98 10.34 -6 10 C-6 7 -6 7 -5 4 C-3.02 4.495 -3.02 4.495 -1 5 C-0.67 3.35 -0.34 1.7 0 0 Z " fill="#192540" transform="translate(369,232)"/>
<path d="M0 0 C8.25 0 16.5 0 25 0 C25 0.33 25 0.66 25 1 C21.37 1 17.74 1 14 1 C14 1.66 14 2.32 14 3 C17.63 3 21.26 3 25 3 C25 3.33 25 3.66 25 4 C16.75 4 8.5 4 0 4 C0 2.68 0 1.36 0 0 Z " fill="#14213C" transform="translate(238,210)"/>
<path d="M0 0 C1.395 0.007 2.789 0.019 4.184 0.035 C4.895 0.04 5.605 0.044 6.338 0.049 C8.099 0.061 9.86 0.079 11.621 0.098 C11.621 1.418 11.621 2.738 11.621 4.098 C10.622 4.147 9.623 4.196 8.594 4.246 C7.303 4.321 6.013 4.396 4.684 4.473 C3.396 4.542 2.108 4.612 0.781 4.684 C-0.262 4.82 -1.304 4.957 -2.379 5.098 C-2.709 5.758 -3.039 6.418 -3.379 7.098 C-5.689 7.098 -7.999 7.098 -10.379 7.098 C-9.76 7.036 -9.141 6.974 -8.504 6.91 C-6.111 6.275 -6.111 6.275 -5.191 3.598 C-4.923 2.773 -4.655 1.948 -4.379 1.098 C-3.379 0.098 -3.379 0.098 0 0 Z " fill="#17243E" transform="translate(290.37890625,190.90234375)"/>
<path d="M0 0 C22.44 0 44.88 0 68 0 C68 0.33 68 0.66 68 1 C66.35 1 64.7 1 63 1 C63 1.66 63 2.32 63 3 C61.68 3.33 60.36 3.66 59 4 C59 3.34 59 2.68 59 2 C29.795 1.505 29.795 1.505 0 1 C0 0.67 0 0.34 0 0 Z " fill="#E3E4E7" transform="translate(233,223)"/>
<path d="M0 0 C8.91 0 17.82 0 27 0 C27 0.33 27 0.66 27 1 C25.298 1.217 25.298 1.217 23.562 1.438 C20.192 1.612 20.192 1.612 19 3 C17.587 3.156 16.166 3.251 14.746 3.316 C13.892 3.358 13.038 3.4 12.158 3.443 C11.26 3.483 10.363 3.522 9.438 3.562 C8.536 3.606 7.634 3.649 6.705 3.693 C4.47 3.8 2.235 3.902 0 4 C0 2.68 0 1.36 0 0 Z " fill="#16243E" transform="translate(236,202)"/>
<path d="M0 0 C0 1.65 0 3.3 0 5 C-6.27 5 -12.54 5 -19 5 C-19 2 -19 2 -18 1 C-15.162 0.763 -12.343 0.578 -9.5 0.438 C-8.702 0.394 -7.904 0.351 -7.082 0.307 C-1.348 0 -1.348 0 0 0 Z " fill="#2F3B53" transform="translate(502,190)"/>
<path d="M0 0 C2.31 0 4.62 0 7 0 C6.01 2.97 5.02 5.94 4 9 C1.69 9 -0.62 9 -3 9 C-2.443 5.656 -1.648 2.967 0 0 Z " fill="#25324C" transform="translate(345,188)"/>
<path d="M0 0 C2.31 0 4.62 0 7 0 C7.99 2.97 8.98 5.94 10 9 C7.69 9 5.38 9 3 9 C2.01 6.03 1.02 3.06 0 0 Z " fill="#24314B" transform="translate(318,188)"/>
<path d="M0 0 C2.64 0 5.28 0 8 0 C7.34 2.97 6.68 5.94 6 9 C5.01 8.34 4.02 7.68 3 7 C0.847 7.308 0.847 7.308 -1 8 C-1.931 5.394 -2.149 4.358 -1.062 1.75 C-0.712 1.173 -0.361 0.595 0 0 Z " fill="#2A364F" transform="translate(481,234)"/>
<path d="M0 0 C0.124 0.639 0.248 1.279 0.375 1.938 C0.581 2.618 0.788 3.299 1 4 C1.66 4.33 2.32 4.66 3 5 C2.34 7.31 1.68 9.62 1 12 C0.67 11.01 0.34 10.02 0 9 C-8.25 9 -16.5 9 -25 9 C-25 8.67 -25 8.34 -25 8 C-20.38 7.67 -15.76 7.34 -11 7 C-11 6.34 -11 5.68 -11 5 C-7.37 5 -3.74 5 0 5 C0 3.35 0 1.7 0 0 Z " fill="#4F5A6E" transform="translate(263,206)"/>
<path d="M0 0 C2.64 0 5.28 0 8 0 C8 0.99 8 1.98 8 3 C3.295 4.861 -0.876 5.251 -5.875 5.125 C-6.563 5.116 -7.252 5.107 -7.961 5.098 C-9.641 5.074 -11.32 5.038 -13 5 C-13 5.66 -13 6.32 -13 7 C-8.71 7 -4.42 7 0 7 C0 7.33 0 7.66 0 8 C-4.62 8 -9.24 8 -14 8 C-14 6.68 -14 5.36 -14 4 C-9.38 4 -4.76 4 0 4 C0 2.68 0 1.36 0 0 Z " fill="#14233E" transform="translate(247,187)"/>
<path d="M0 0 C0 1.65 0 3.3 0 5 C-6.6 4.67 -13.2 4.34 -20 4 C-20 3.34 -20 2.68 -20 2 C-16.716 0.358 -13.053 0.618 -9.438 0.438 C-8.247 0.373 -8.247 0.373 -7.033 0.307 C-1.334 0 -1.334 0 0 0 Z " fill="#182540" transform="translate(463,194)"/>
<path d="M0 0 C0.99 0.33 1.98 0.66 3 1 C3.949 3.285 3.949 3.285 4.688 6.062 C5.065 7.441 5.065 7.441 5.449 8.848 C5.631 9.558 5.813 10.268 6 11 C1.545 12.485 1.545 12.485 -3 14 C-2.34 13.01 -1.68 12.02 -1 11 C-0.549 8.951 -0.549 8.951 -0.375 6.812 C-0.189 4.925 -0.189 4.925 0 3 C-1.98 3 -3.96 3 -6 3 C-6 2.67 -6 2.34 -6 2 C-4.02 2 -2.04 2 0 2 C0 1.34 0 0.68 0 0 Z " fill="#DCDEE2" transform="translate(529,241)"/>
<path d="M0 0 C2.64 0 5.28 0 8 0 C7.719 1.481 7.425 2.96 7.125 4.438 C6.963 5.261 6.8 6.085 6.633 6.934 C6.424 7.616 6.215 8.297 6 9 C5.01 9.495 5.01 9.495 4 10 C1.875 9.062 1.875 9.062 0 8 C0 5.36 0 2.72 0 0 Z " fill="#1C2943" transform="translate(407,187)"/>
<path d="M0 0 C0.33 0.66 0.66 1.32 1 2 C2.32 1.67 3.64 1.34 5 1 C5.66 2.32 6.32 3.64 7 5 C6.01 5.33 5.02 5.66 4 6 C3.67 6.99 3.34 7.98 3 9 C1 11 1 11 -2 13 C-2.66 12.67 -3.32 12.34 -4 12 C-2.68 8.04 -1.36 4.08 0 0 Z " fill="#27344E" transform="translate(356,200)"/>
<path d="M0 0 C1.98 0 3.96 0 6 0 C7.001 3.004 7.514 5.877 8 9 C6.188 9.688 6.188 9.688 4 10 C2.312 9 2.312 9 1 7 C0.312 3.312 0.312 3.312 0 0 Z " fill="#1C2944" transform="translate(530,235)"/>
<path d="M0 0 C3.465 1.485 3.465 1.485 7 3 C6.34 4.98 5.68 6.96 5 9 C1.276 7.787 -2.378 6.491 -6 5 C-4.68 4.34 -3.36 3.68 -2 3 C-1.67 3.33 -1.34 3.66 -1 4 C-0.67 2.68 -0.34 1.36 0 0 Z " fill="#25314B" transform="translate(344,246)"/>
<path d="M0 0 C0.33 0 0.66 0 1 0 C1.196 1.436 1.381 2.874 1.562 4.312 C1.667 5.113 1.771 5.914 1.879 6.738 C2 9 2 9 1 12 C2.32 12.66 3.64 13.32 5 14 C2.69 14.33 0.38 14.66 -2 15 C-3.257 12.094 -4 10.204 -4 7 C-6.31 7 -8.62 7 -11 7 C-11 6.67 -11 6.34 -11 6 C-7.37 6 -3.74 6 0 6 C0 4.02 0 2.04 0 0 Z " fill="#E2E3E6" transform="translate(352,200)"/>
<path d="M0 0 C5.28 0 10.56 0 16 0 C16 0.33 16 0.66 16 1 C14.35 1.33 12.7 1.66 11 2 C10.67 2.99 10.34 3.98 10 5 C6.7 5 3.4 5 0 5 C0 3.35 0 1.7 0 0 Z " fill="#1E2B46" transform="translate(417,194)"/>
<path d="M0 0 C0.33 0.66 0.66 1.32 1 2 C2.114 1.876 2.114 1.876 3.25 1.75 C6 2 6 2 8.312 3.875 C10 6 10 6 10 8 C8.521 8.027 7.042 8.046 5.562 8.062 C4.327 8.08 4.327 8.08 3.066 8.098 C1 8 1 8 0 7 C-0.041 4.667 -0.042 2.333 0 0 Z " fill="#2B364F" transform="translate(376,247)"/>
<path d="M0 0 C1.75 1.438 1.75 1.438 3 3 C1.35 3.33 -0.3 3.66 -2 4 C-2 6.64 -2 9.28 -2 12 C-2.33 12 -2.66 12 -3 12 C-3.33 13.98 -3.66 15.96 -4 18 C-4.33 18 -4.66 18 -5 18 C-5 13.71 -5 9.42 -5 5 C-6.98 5 -8.96 5 -11 5 C-11 4.67 -11 4.34 -11 4 C-7.535 3.505 -7.535 3.505 -4 3 C-4 2.34 -4 1.68 -4 1 C-2.188 0.312 -2.188 0.312 0 0 Z " fill="#35415A" transform="translate(458,230)"/>
<path d="M0 0 C-2.846 2.846 -5.804 2.456 -9.625 2.625 C-10.685 2.683 -10.685 2.683 -11.766 2.742 C-13.51 2.836 -15.255 2.919 -17 3 C-17 1.68 -17 0.36 -17 -1 C-15.106 -1.224 -13.21 -1.428 -11.312 -1.625 C-9.729 -1.799 -9.729 -1.799 -8.113 -1.977 C-4.863 -2.001 -2.898 -1.409 0 0 Z " fill="#2B3852" transform="translate(292,251)"/>
<path d="M0 0 C0.66 0 1.32 0 2 0 C2.054 2.291 2.093 4.583 2.125 6.875 C2.148 8.151 2.171 9.427 2.195 10.742 C2 14 2 14 0 16 C-0.33 13.69 -0.66 11.38 -1 9 C-1.33 9.99 -1.66 10.98 -2 12 C-2.99 12 -3.98 12 -5 12 C-4.34 10.02 -3.68 8.04 -3 6 C-2.34 6 -1.68 6 -1 6 C-0.67 4.02 -0.34 2.04 0 0 Z " fill="#F5F5F7" transform="translate(490,235)"/>
<path d="M0 0 C2.97 0.33 5.94 0.66 9 1 C9 1.33 9 1.66 9 2 C6.69 2 4.38 2 2 2 C2.451 2.905 2.451 2.905 2.91 3.828 C3.29 4.627 3.671 5.427 4.062 6.25 C4.445 7.039 4.828 7.828 5.223 8.641 C6.086 11.26 5.93 12.449 5 15 C3.062 13.688 3.062 13.688 1 11 C0.342 7.344 0.128 3.709 0 0 Z " fill="#F0F1F3" transform="translate(339,206)"/>
<path d="M0 0 C2.875 -0.188 2.875 -0.188 6 0 C6.66 0.99 7.32 1.98 8 3 C10.656 3.583 10.656 3.583 13.625 3.688 C14.628 3.753 15.631 3.819 16.664 3.887 C17.435 3.924 18.206 3.961 19 4 C14.559 6.961 10.208 6.775 5 6 C2.576 4.563 1.663 3.351 0 1 C0 0.67 0 0.34 0 0 Z " fill="#1B2843" transform="translate(326,224)"/>
<path d="M0 0 C1.65 0 3.3 0 5 0 C5.33 2.97 5.66 5.94 6 9 C4.02 9 2.04 9 0 9 C0 6.03 0 3.06 0 0 Z " fill="#1B2844" transform="translate(240,246)"/>
<path d="M0 0 C2 3 2 3 1.625 5.688 C1.419 6.451 1.212 7.214 1 8 C-3.455 8.495 -3.455 8.495 -8 9 C-8 8.34 -8 7.68 -8 7 C-7.01 7 -6.02 7 -5 7 C-4.876 6.031 -4.752 5.061 -4.625 4.062 C-4.419 3.052 -4.212 2.041 -4 1 C-2 0 -2 0 0 0 Z " fill="#192640" transform="translate(374,221)"/>
<path d="M0 0 C0.33 1.32 0.66 2.64 1 4 C-0.98 4.33 -2.96 4.66 -5 5 C-5 12.26 -5 19.52 -5 27 C-5.33 27 -5.66 27 -6 27 C-6 18.75 -6 10.5 -6 2 C-2 1 -2 1 0 2 C0 1.34 0 0.68 0 0 Z " fill="#121F3A" transform="translate(487,198)"/>
<path d="M0 0 C0.99 0.33 1.98 0.66 3 1 C2.649 3.834 2.215 4.816 0.004 6.703 C-0.802 7.214 -1.607 7.724 -2.438 8.25 C-3.241 8.771 -4.044 9.292 -4.871 9.828 C-7 11 -7 11 -9 11 C-9.33 10.01 -9.66 9.02 -10 8 C-9 7 -9 7 -6.438 6.938 C-5.231 6.968 -5.231 6.968 -4 7 C-4 6.34 -4 5.68 -4 5 C-3.34 5 -2.68 5 -2 5 C-1.856 4.361 -1.711 3.721 -1.562 3.062 C-1 1 -1 1 0 0 Z " fill="#1E5AFD" transform="translate(196,228)"/>
<path d="M0 0 C0.33 0 0.66 0 1 0 C1.66 2.64 2.32 5.28 3 8 C2.34 8 1.68 8 1 8 C1 10.31 1 12.62 1 15 C0.67 15 0.34 15 0 15 C-0.66 12.69 -1.32 10.38 -2 8 C-2.99 8 -3.98 8 -5 8 C-5.33 9.32 -5.66 10.64 -6 12 C-6 9.69 -6 7.38 -6 5 C-4.02 4.67 -2.04 4.34 0 4 C0 2.68 0 1.36 0 0 Z " fill="#27344C" transform="translate(488,198)"/>
<path d="M0 0 C2 2 2 2 2 6 C7.94 6 13.88 6 20 6 C20.33 5.34 20.66 4.68 21 4 C21 4.99 21 5.98 21 7 C14.73 7 8.46 7 2 7 C2 8.98 2 10.96 2 13 C1.67 13 1.34 13 1 13 C0.636 11.398 0.284 9.793 -0.062 8.188 C-0.26 7.294 -0.457 6.401 -0.66 5.48 C-1 3 -1 3 0 0 Z " fill="#D7D8DD" transform="translate(415,187)"/>
<path d="M0 0 C2.31 0 4.62 0 7 0 C6.67 1.98 6.34 3.96 6 6 C4.35 6.33 2.7 6.66 1 7 C0.67 4.69 0.34 2.38 0 0 Z " fill="#1D2B46" transform="translate(360,187)"/>
<path d="M0 0 C2.31 0 4.62 0 7 0 C6.34 1.65 5.68 3.3 5 5 C3.35 5 1.7 5 0 5 C-0.66 6.32 -1.32 7.64 -2 9 C-3 6 -3 6 -1.562 2.812 C-1.047 1.884 -0.531 0.956 0 0 Z " fill="#29354D" transform="translate(322,208)"/>
<path d="M0 0 C5.28 0.33 10.56 0.66 16 1 C16 1.33 16 1.66 16 2 C11.71 2 7.42 2 3 2 C3 6.62 3 11.24 3 16 C2.67 16 2.34 16 2 16 C1.67 14.02 1.34 12.04 1 10 C0.67 10 0.34 10 0 10 C0 6.7 0 3.4 0 0 Z " fill="#374158" transform="translate(336,204)"/>
<path d="M0 0 C1.65 0 3.3 0 5 0 C5 4.29 5 8.58 5 13 C4.67 13 4.34 13 4 13 C4 10.69 4 8.38 4 6 C3.01 6 2.02 6 1 6 C0.67 6.99 0.34 7.98 0 9 C0 6.03 0 3.06 0 0 Z " fill="#17243F" transform="translate(333,187)"/>
<path d="M0 0 C0.33 0.66 0.66 1.32 1 2 C1.66 2 2.32 2 3 2 C2.34 3.32 1.68 4.64 1 6 C-1.64 6 -4.28 6 -7 6 C-6.688 4.062 -6.688 4.062 -6 2 C-5.01 1.67 -4.02 1.34 -3 1 C-3 1.66 -3 2.32 -3 3 C-2.34 3 -1.68 3 -1 3 C-0.67 2.01 -0.34 1.02 0 0 Z " fill="#2F3B54" transform="translate(359,249)"/>
<path d="M0 0 C0.99 0.33 1.98 0.66 3 1 C3.66 1 4.32 1 5 1 C5 2.98 5 4.96 5 7 C5.66 7.33 6.32 7.66 7 8 C4.125 8.188 4.125 8.188 1 8 C-1 5 -1 5 -0.625 2.312 C-0.419 1.549 -0.212 0.786 0 0 Z " fill="#1D2A44" transform="translate(510,236)"/>
</svg>
